<svg width="100" height="100" viewBox="0 0 100 100" fill="none" xmlns="http://www.w3.org/2000/svg">
<g clip-path="url(#clip0_16_331)">
<mask id="mask0_16_331" style="mask-type:luminance" maskUnits="userSpaceOnUse" x="22" y="23" width="56" height="53">
<path d="M77.7777 23.6111H22.2222V75.1698H77.7777V23.6111Z" fill="white"/>
</mask>
<g mask="url(#mask0_16_331)">
<path d="M22.2222 26.7265C22.4824 25.9408 22.7763 25.179 23.4205 24.6005C24.2491 23.8571 25.2338 23.6111 26.3173 23.6111C34.7061 23.614 43.0949 23.6129 51.4831 23.6129C56.4369 23.6129 61.3901 23.6105 66.3438 23.614C68.1511 23.6153 69.5162 24.4671 70.0927 25.9337C70.3783 26.6598 70.4831 28.12 70.3136 29.0914C70.2369 29.1048 70.1516 29.1318 70.0662 29.1329C69.5804 29.1371 69.0945 29.1347 68.5251 29.1347C68.5251 28.603 68.528 28.1078 68.5251 27.6118C68.5156 26.1762 67.7954 25.4543 66.3515 25.4537C52.973 25.4519 39.5951 25.4514 26.2166 25.4537C24.8068 25.4537 24.0713 26.1861 24.0713 27.579C24.0695 39.6761 24.0695 51.7732 24.0713 63.8703C24.0713 65.2309 24.8122 65.9628 26.1843 65.9757C26.6877 65.9804 27.1912 65.9762 27.7312 65.9762V67.7978C26.2343 67.8271 24.7497 67.9787 23.5019 66.8966C22.8158 66.3018 22.4895 65.5237 22.2222 64.6998V26.7265Z" fill="#5D6DFD"/>
<path d="M53.6902 75.1697C46.9821 75.1697 40.2739 75.1719 33.5666 75.1679C31.6432 75.1666 30.2281 74.1449 29.7723 72.4113C29.6639 72.0002 29.6285 71.5594 29.6285 71.132C29.6209 59.0876 29.6216 47.0433 29.6239 34.9988C29.6239 32.9988 30.6185 31.6088 32.4152 31.1287C32.8439 31.014 33.3074 30.9876 33.7549 30.9876C47.0621 30.9805 60.3699 30.98 73.6771 30.9836C76.2682 30.9841 77.7777 32.5005 77.7777 35.0791C77.7777 47.0695 77.7777 59.0601 77.7777 71.0506C77.7777 73.6754 76.2813 75.1697 73.6513 75.1702C66.9974 75.1708 60.3441 75.1697 53.6902 75.1697ZM53.6584 73.3323C60.311 73.3323 66.9643 73.3323 73.6171 73.3323C75.2636 73.3323 75.9296 72.6772 75.9296 71.0565C75.9296 59.0672 75.9296 47.0784 75.9296 35.089C75.9296 33.4954 75.2631 32.8302 73.6571 32.8302C60.3511 32.829 47.045 32.829 33.7391 32.8302C32.1431 32.8302 31.4748 33.5029 31.4748 35.1037C31.4742 47.093 31.4742 59.0818 31.4748 71.0711C31.4748 72.6566 32.1578 73.3318 33.7532 73.3318C40.3882 73.3318 47.0232 73.3323 53.6584 73.3323Z" fill="#5D6DFD"/>
<path d="M27.7362 27.3343V29.1078H25.9548V27.3343H27.7362Z" fill="#5D6DFD"/>
<path d="M29.6604 27.3247H31.4353V29.0889H29.6604V27.3247Z" fill="#5D6DFD"/>
<path d="M33.3585 29.1033C33.3462 28.9336 33.3315 28.8112 33.3291 28.6889C33.2997 27.1641 33.3002 27.1583 34.832 27.3052C34.9562 27.3169 35.1576 27.4809 35.1647 27.5851C35.2001 28.0782 35.1806 28.5752 35.1806 29.1027L33.3585 29.1033Z" fill="#5D6DFD"/>
<path d="M49.9997 45.3601C49.9997 44.6178 49.9933 43.8811 50.0015 43.1451C50.0104 42.3911 50.3443 42.045 51.0891 42.0415C52.8252 42.0333 54.5612 42.0339 56.2973 42.0415C57.0564 42.0444 57.3839 42.3724 57.3968 43.1258C57.4075 43.7547 57.412 44.3847 57.3939 45.0135C57.3857 45.2922 57.4722 45.4497 57.7519 45.5142C57.9262 45.5546 58.0916 45.6342 58.259 45.7015C58.8922 45.9544 59.4565 45.8349 59.952 45.3426C60.2589 45.0375 60.5557 44.7214 60.8777 44.4328C61.3307 44.0269 61.7994 44.0082 62.2316 44.4292C63.5366 45.6992 64.8286 46.9837 66.1065 48.2807C66.5276 48.7081 66.514 49.1853 66.103 49.6272C65.6737 50.0893 65.2132 50.5225 64.7668 50.968C64.6902 51.0449 64.5359 51.1432 64.5501 51.1953C64.7037 51.7439 64.8633 52.2931 65.073 52.8218C65.1219 52.9447 65.364 53.0525 65.5223 53.0601C66.1177 53.0882 66.7154 53.0654 67.312 53.0729C68.1623 53.0835 68.5169 53.4132 68.5227 54.2387C68.534 55.9285 68.5351 57.6187 68.5222 59.3092C68.5162 60.0919 68.1789 60.4228 67.3968 60.4433C66.7643 60.4597 66.1295 60.4262 65.4987 60.4626C65.3351 60.4719 65.1802 60.6599 65.0259 60.7711C65.0012 60.7887 65.0041 60.8403 64.9841 60.8689C64.2862 61.8683 64.6277 62.5651 65.4958 63.3204C66.7955 64.4517 66.7401 64.6301 65.5218 65.8417C64.4859 66.8715 63.4523 67.9037 62.413 68.9296C61.7905 69.5437 61.3265 69.539 60.6976 68.9225C60.2859 68.5185 59.8801 68.1081 59.4691 67.7029C59.3802 67.6151 59.2489 67.4506 59.1894 67.4711C58.6305 67.6625 58.0605 67.8458 57.5476 68.1281C57.4062 68.2058 57.4157 68.6058 57.4057 68.8599C57.3857 69.3985 57.4104 69.9389 57.3944 70.4776C57.3762 71.11 57.0523 71.4789 56.4357 71.4853C54.6095 71.5046 52.7829 71.5051 50.9566 71.484C50.3501 71.4771 50.0191 71.0924 50.0039 70.4629C49.9886 69.8342 49.985 69.2042 50.0062 68.5753C50.0168 68.2639 49.9484 68.0618 49.6111 67.9904C49.4191 67.95 49.2354 67.8639 49.0522 67.7872C48.4872 67.5507 47.9832 67.6529 47.54 68.094C47.2207 68.4119 46.9086 68.7386 46.5789 69.0449C46.1041 69.4851 45.5901 69.5121 45.1361 69.0694C43.8582 67.8229 42.5926 66.5635 41.3407 65.2918C40.8572 64.8011 40.8819 64.3322 41.3719 63.8246C41.8223 63.3574 42.3058 62.9211 42.7398 62.4399C42.847 62.321 42.8907 62.0528 42.8347 61.8994C42.6586 61.4158 42.5408 60.7729 42.1751 60.5351C41.8029 60.2933 41.1627 60.4515 40.6404 60.4497C38.9968 60.445 38.8955 60.3461 38.8955 58.6937C38.8955 57.2376 38.892 55.781 38.8968 54.3247C38.9002 53.3775 39.2094 53.0782 40.1734 53.0729C40.7523 53.0694 41.3312 53.0789 41.9095 53.0671C42.0397 53.0642 42.2469 53.0337 42.2852 52.9535C42.5243 52.4518 42.7387 51.9365 42.9254 51.4131C42.9548 51.3299 42.8234 51.1631 42.7316 51.0682C42.2923 50.6156 41.8341 50.1806 41.3948 49.7274C40.8666 49.1824 40.8583 48.7168 41.3912 48.1805C42.6109 46.9521 43.8382 45.7314 45.073 44.5182C45.6101 43.9907 46.0777 43.9989 46.6289 44.5253C47.0723 44.9485 47.5093 45.3789 47.9315 45.8239C48.1323 46.0358 48.3037 46.099 48.5876 45.9574C49.0375 45.7337 49.5139 45.5615 49.9997 45.3601ZM43.2086 48.9937C43.6891 49.4499 44.152 49.875 44.5984 50.3158C45.1272 50.8381 45.149 51.1367 44.8445 51.8071C44.5118 52.5407 44.202 53.2867 43.92 54.0414C43.6697 54.71 43.4507 54.9032 42.7364 54.9108C42.0909 54.9179 41.4455 54.9121 40.7912 54.9121V58.5989C41.4466 58.5989 42.0591 58.5931 42.6715 58.6001C43.4377 58.6089 43.6532 58.7822 43.9189 59.4707C44.2091 60.2225 44.5165 60.969 44.8451 61.7044C45.1579 62.4042 45.1308 62.6869 44.5672 63.2374C44.1219 63.6724 43.6579 64.0892 43.2793 64.4422C44.2191 65.3761 45.0672 66.2193 45.9658 67.1121C46.3709 66.6911 46.8202 66.2251 47.2684 65.7579C47.6659 65.3428 48.097 65.2678 48.637 65.5167C49.4368 65.8856 50.257 66.2128 51.0815 66.5249C51.6073 66.724 51.8623 67.0594 51.8507 67.621C51.8365 68.2803 51.847 68.9407 51.847 69.6199H55.5454C55.5454 68.9412 55.55 68.2972 55.5441 67.6532C55.5388 67.0811 55.7879 66.7228 56.3439 66.5172C57.1707 66.2122 57.9851 65.8703 58.7877 65.5067C59.3043 65.2725 59.727 65.3369 60.1122 65.7379C60.5733 66.2181 61.0355 66.6976 61.4372 67.1144C62.3418 66.204 63.1968 65.3433 64.0966 64.4369C63.6802 64.04 63.2133 63.5904 62.7416 63.146C62.3152 62.7443 62.2734 62.3046 62.519 61.7794C62.8534 61.0657 63.1668 60.3403 63.4423 59.6025C63.7622 58.7471 63.9312 58.6012 64.8633 58.5983C65.4511 58.596 66.0382 58.5983 66.6341 58.5983V54.9108C65.9345 54.9108 65.2702 54.9021 64.6072 54.9137C64.0419 54.9237 63.7133 54.6643 63.5166 54.1381C63.2157 53.3329 62.8752 52.5419 62.5301 51.7544C62.2564 51.1292 62.2811 50.8351 62.7722 50.3515C63.2315 49.8996 63.7144 49.471 64.155 49.0611C63.2191 48.1331 62.3652 47.2871 61.4572 46.3871C61.0455 46.8146 60.5833 47.2917 60.1245 47.7724C59.7229 48.1933 59.2865 48.2461 58.7536 47.9978C58.004 47.6483 57.2361 47.3357 56.4629 47.04C55.7302 46.7594 55.5512 46.5458 55.5465 45.7764C55.5423 45.1553 55.5459 44.5335 55.5459 43.9169H51.8848C51.8683 43.9924 51.8541 44.0264 51.8536 44.061C51.8507 44.6358 51.8507 45.2108 51.8476 45.7864C51.8436 46.5464 51.6751 46.7578 50.9814 47.0242C50.2087 47.3204 49.4444 47.6389 48.6865 47.9715C48.0198 48.2643 47.7595 48.2432 47.2355 47.7186C46.779 47.2618 46.3439 46.7835 45.9027 46.3181C44.9841 47.2303 44.1402 48.0686 43.2086 48.9937Z" fill="#5D6DFD"/>
<path d="M74.0612 38.4019V40.1579H33.3604V38.4019H74.0612Z" fill="#5D6DFD"/>
<path d="M33.3272 44.7499C33.3272 44.2171 33.3107 43.7346 33.3396 43.2544C33.346 43.1474 33.5121 42.9611 33.6051 42.9606C35.9507 42.9547 38.2962 42.9693 40.6418 42.9817C40.6554 42.9817 40.6689 43.0044 40.7149 43.0454V44.7493L33.3272 44.7499Z" fill="#5D6DFD"/>
<path d="M33.3277 46.6701H38.8928C38.8928 47.2001 38.9122 47.6983 38.8769 48.193C38.8692 48.2966 38.659 48.4671 38.5406 48.4683C36.9188 48.4864 35.2965 48.4864 33.6747 48.4683C33.558 48.4671 33.3508 48.2926 33.3437 48.1877C33.3083 47.693 33.3277 47.1948 33.3277 46.6701Z" fill="#5D6DFD"/>
<path d="M74.0683 69.6886V71.4943C73.1431 71.4943 72.2302 71.4943 71.3169 71.4943C70.4036 71.4943 69.515 71.4943 68.5709 71.4943V69.6886H74.0683Z" fill="#5D6DFD"/>
<path d="M33.3604 36.5138V34.7181H35.1772C35.1772 35.2281 35.193 35.724 35.1642 36.217C35.1583 36.3206 34.991 36.4945 34.8904 36.5004C34.394 36.5297 33.8945 36.5138 33.3604 36.5138Z" fill="#5D6DFD"/>
<path d="M38.8723 34.7181V36.467H37.0768V34.7181H38.8723Z" fill="#5D6DFD"/>
<path d="M42.5655 36.4855H40.7823V34.7168H42.5655V36.4855Z" fill="#5D6DFD"/>
<path d="M47.2227 56.7661C47.2145 53.2361 50.0995 50.3514 53.6599 50.3297C57.2404 50.308 60.1695 53.1805 60.1902 56.7333C60.2108 60.2786 57.2992 63.1879 53.7217 63.1961C50.1384 63.2049 47.2316 60.3283 47.2227 56.7661ZM53.6829 52.1753C51.1383 52.1875 49.0583 54.2736 49.0861 56.7843C49.1142 59.3218 51.1995 61.3753 53.7277 61.3558C56.2547 61.3365 58.3711 59.2165 58.3369 56.738C58.3022 54.2028 56.2216 52.1629 53.6829 52.1753Z" fill="#5D6DFD"/>
</g>
</g>
<defs>
<clipPath id="clip0_16_331">
<rect width="100" height="100" fill="white"/>
</clipPath>
</defs>
</svg>
