<svg width="178" height="178" viewBox="0 0 178 178" fill="none" xmlns="http://www.w3.org/2000/svg">
<g filter="url(#filter0_b_56_125)">
<circle cx="89" cy="89" r="89" fill="#1A2D47" fill-opacity="0.3"/>
</g>
<g clip-path="url(#clip0_56_125)">
<mask id="mask0_56_125" style="mask-type:luminance" maskUnits="userSpaceOnUse" x="61" y="61" width="56" height="56">
<path d="M116.778 61.2222H61.2222V116.771H116.778V61.2222Z" fill="white"/>
</mask>
<g mask="url(#mask0_56_125)">
<path d="M61.2222 95.8333C61.2831 95.7074 61.3497 95.5842 61.402 95.4567C61.8454 94.3697 62.6395 93.7553 63.8176 93.6539C63.9799 93.6395 64.1422 93.6379 64.3046 93.6365C65.6117 93.6278 66.0928 93.2496 66.287 91.9497C66.3275 91.6758 66.1608 91.3252 65.9914 91.0774C65.7595 90.7382 65.4132 90.4818 65.1508 90.1615C64.3451 89.1761 64.2843 87.711 65.129 86.7647C66.1015 85.675 67.1361 84.6302 68.2245 83.6563C69.2026 82.781 70.6489 82.8433 71.6647 83.681C71.9704 83.9331 72.2443 84.2243 72.5283 84.5027C72.8588 84.8272 73.2371 84.9185 73.6703 84.7461C73.9383 84.6403 74.2065 84.5315 74.4703 84.4157C74.892 84.2302 75.1136 83.9099 75.1107 83.4404C75.1079 83.097 75.1006 82.7521 75.1195 82.41C75.205 80.9349 76.2918 79.8204 77.7671 79.7727C79.0857 79.7292 80.4074 79.7292 81.7246 79.7727C83.1796 79.822 84.2549 80.9218 84.3446 82.3695C84.3533 82.5145 84.3576 82.6579 84.3592 82.8028C84.3707 84.1447 84.6881 84.5577 86.0314 84.7953C86.3025 84.8432 86.6589 84.6896 86.9053 84.5214C87.2589 84.2808 87.5283 83.9186 87.8675 83.6506C88.9022 82.8318 90.3325 82.8129 91.3078 83.697C92.3511 84.6417 93.3496 85.6431 94.2988 86.6836C95.1958 87.6675 95.1711 89.1297 94.3263 90.1672C94.0654 90.489 93.7611 90.776 93.4728 91.0745C93.164 91.3932 93.0888 91.7585 93.2453 92.1714C93.3221 92.3743 93.425 92.5671 93.4901 92.7728C93.6974 93.425 94.1481 93.6568 94.8132 93.6452C95.3132 93.6365 95.8349 93.6554 96.3117 93.7858C97.4188 94.0886 98.1854 95.0639 98.2201 96.2146C98.2607 97.5507 98.2679 98.8896 98.2245 100.226C98.1767 101.701 97.0638 102.785 95.5871 102.876C95.461 102.883 95.3335 102.883 95.2074 102.883C93.8395 102.891 93.467 103.165 93.2047 104.533C93.1511 104.814 93.3206 105.189 93.4945 105.451C93.7206 105.792 94.0742 106.045 94.3336 106.367C95.1306 107.357 95.2045 108.779 94.3713 109.72C93.38 110.841 92.3106 111.901 91.1933 112.898C90.2875 113.706 88.834 113.645 87.882 112.887C87.5443 112.617 87.2429 112.301 86.9299 112.001C86.5967 111.681 86.2257 111.581 85.7908 111.774C85.5431 111.884 85.2953 111.991 85.0417 112.088C84.5779 112.265 84.3678 112.61 84.3592 113.091C84.3533 113.381 84.3635 113.669 84.3533 113.959C84.3056 115.294 83.6389 116.2 82.384 116.647C82.3043 116.676 82.2332 116.728 82.1593 116.771H77.3858C77.3063 116.733 77.2279 116.688 77.1453 116.66C75.8585 116.242 75.1368 115.271 75.1093 113.913C75.1035 113.606 75.1672 113.283 75.0875 112.997C75.0079 112.709 74.8543 112.362 74.6224 112.21C73.4297 111.428 73.0631 111.486 72.0517 112.477C72.0125 112.514 71.9763 112.554 71.9357 112.591C70.7025 113.742 69.1301 113.765 67.9071 112.612C67.0406 111.794 66.2088 110.938 65.374 110.087C64.6508 109.351 64.3161 108.437 64.6263 107.461C64.8247 106.841 65.2653 106.263 65.7045 105.761C66.4 104.966 66.4595 104.889 66.045 103.902C66.0029 103.802 65.9565 103.705 65.9189 103.604C65.7349 103.098 65.374 102.868 64.8378 102.885C64.4958 102.895 64.1495 102.904 63.8089 102.87C62.412 102.736 61.6324 101.879 61.2222 100.607C61.2222 99.0157 61.2222 97.4246 61.2222 95.8333ZM93.1946 88.4849C93.0264 88.179 92.9482 87.924 92.7815 87.7515C91.9526 86.8936 91.1121 86.046 90.2528 85.2185C89.8007 84.7838 89.3311 84.8027 88.8543 85.2272C88.5718 85.4793 88.3038 85.7503 88.0342 86.017C86.4372 87.6024 82.8781 86.0156 82.6057 84.1925C82.5607 83.8896 82.5318 83.5839 82.5115 83.2781C82.4956 83.0433 82.5158 82.8071 82.5043 82.5738C82.471 81.9652 82.1593 81.6217 81.5595 81.6115C80.3479 81.5913 79.1364 81.5928 77.925 81.6115C77.3338 81.6203 77.0076 81.9681 76.9642 82.5695C76.9482 82.7854 76.9599 83.0028 76.9583 83.2202C76.954 85.3083 74.9426 86.9835 72.8603 86.6633C71.9517 86.5242 71.3474 85.9546 70.7445 85.3446C70.1576 84.7533 69.6939 84.7489 69.1114 85.3199C68.3245 86.0924 67.5433 86.872 66.7739 87.6617C66.2522 88.1964 66.2638 88.6732 66.7811 89.221C67.0174 89.4703 67.271 89.7036 67.4956 89.9629C67.9767 90.5195 68.2751 91.1831 68.1549 91.9077C67.7839 94.1539 66.7854 95.6218 64.4943 95.49C64.3683 95.4828 64.2408 95.4856 64.1147 95.49C63.4525 95.5175 63.0917 95.8378 63.08 96.487C63.0597 97.6622 63.0611 98.8375 63.08 100.013C63.0901 100.663 63.4496 101.003 64.1017 101.034C64.4263 101.05 64.7538 101.027 65.0783 101.043C66.1363 101.095 66.9478 101.573 67.4492 102.508C67.6868 102.952 67.8868 103.423 68.0375 103.902C68.3476 104.891 68.1463 105.796 67.4665 106.582C67.2072 106.882 66.9014 107.144 66.6478 107.447C66.3029 107.858 66.2942 108.334 66.6651 108.719C67.5172 109.605 68.3868 110.474 69.2736 111.326C69.6736 111.71 70.159 111.69 70.5895 111.32C70.8358 111.109 71.0692 110.88 71.2865 110.638C72.9342 108.809 76.602 110.496 76.8556 112.271C76.9236 112.751 76.9454 113.239 76.9583 113.724C76.9831 114.577 77.3004 114.916 78.1424 114.921C79.0278 114.929 79.9146 114.923 80.8 114.923C82.3681 114.923 82.4999 114.794 82.5129 113.238C82.5303 111.135 84.7736 109.412 86.8386 109.892C87.6661 110.084 88.211 110.651 88.779 111.21C89.2818 111.706 89.7847 111.748 90.2557 111.296C91.1165 110.47 91.9599 109.625 92.7858 108.764C93.225 108.306 93.2003 107.842 92.7743 107.367C92.5685 107.138 92.3526 106.919 92.125 106.713C90.3006 105.063 91.9817 101.411 93.7597 101.14C94.0438 101.097 94.3307 101.059 94.6176 101.042C94.906 101.024 95.1972 101.053 95.4842 101.029C96.0479 100.978 96.384 100.645 96.3928 100.077C96.4101 98.865 96.4117 97.6535 96.3928 96.4435C96.3826 95.8421 96.0421 95.529 95.4349 95.4943C95.219 95.4813 95.0017 95.49 94.7842 95.49C92.6975 95.4799 91.015 93.4554 91.344 91.3788C91.4774 90.5368 91.9772 89.9499 92.5468 89.3761C92.8018 89.1196 92.9829 88.7877 93.2003 88.4863L93.1946 88.4849Z" fill="#5D6DFD"/>
<path d="M91.8018 61.2282C92.6699 61.2282 93.5379 61.2195 94.406 61.2282C96.1361 61.2471 97.297 62.3832 97.3375 64.112C97.3578 64.98 97.3593 65.8481 97.3361 66.7146C97.3215 67.2827 97.5607 67.6304 98.081 67.8347C98.836 68.1318 99.5881 68.442 100.328 68.771C100.823 68.9913 101.23 68.9202 101.607 68.5361C102.201 67.929 102.804 67.329 103.409 66.7335C104.725 65.4438 106.316 65.4365 107.632 66.7292C108.857 67.9333 110.074 69.1463 111.28 70.3693C112.571 71.6793 112.561 73.2749 111.268 74.5907C110.686 75.1833 110.103 75.7775 109.503 76.3543C109.081 76.76 109.009 77.1846 109.255 77.7208C109.587 78.441 109.875 79.1815 110.165 79.9206C110.359 80.4163 110.683 80.6713 111.233 80.6596C112.083 80.6422 112.933 80.6481 113.782 80.6568C115.61 80.6756 116.763 81.8277 116.772 83.6492C116.779 85.349 116.778 87.0489 116.772 88.7472C116.766 90.6095 115.64 91.747 113.769 91.7774C112.956 91.7904 112.142 91.7963 111.329 91.7746C110.723 91.7586 110.352 92.0006 110.141 92.5803C109.875 93.3092 109.573 94.025 109.245 94.7279C108.994 95.267 109.087 95.6915 109.503 96.0945C110.1 96.6727 110.686 97.2653 111.268 97.8581C112.556 99.1724 112.559 100.766 111.262 102.079C110.055 103.301 108.841 104.515 107.616 105.721C106.329 106.989 104.731 106.993 103.434 105.731C102.501 104.824 101.585 103.898 100.668 102.973C100.165 102.466 100.12 101.888 100.53 101.497C100.931 101.114 101.466 101.163 101.965 101.655C102.853 102.53 103.731 103.418 104.615 104.297C105.302 104.979 105.734 104.983 106.406 104.313C107.573 103.152 108.736 101.988 109.897 100.823C110.533 100.184 110.533 99.7492 109.906 99.1115C109.322 98.5188 108.726 97.9378 108.145 97.3436C107.176 96.351 106.993 95.3003 107.539 94.0178C107.851 93.2874 108.152 92.5528 108.448 91.8165C108.938 90.5964 109.828 89.9486 111.148 89.9283C112.016 89.9139 112.884 89.9327 113.752 89.9196C114.6 89.9065 114.92 89.5733 114.923 88.7168C114.927 87.0532 114.927 85.3896 114.923 83.726C114.92 82.8493 114.587 82.516 113.707 82.5074C112.858 82.5 112.007 82.5117 111.158 82.5029C109.861 82.4899 108.971 81.8726 108.477 80.6756C108.154 79.8917 107.835 79.1061 107.503 78.3265C106.993 77.1281 107.208 76.0658 108.103 75.1399C108.706 74.5153 109.332 73.9139 109.939 73.2938C110.523 72.6967 110.529 72.2489 109.945 71.659C108.749 70.452 107.547 69.2492 106.34 68.0536C105.747 67.4667 105.302 67.4696 104.705 68.0507C104.109 68.6318 103.53 69.2274 102.937 69.8114C101.918 70.8157 100.871 71.007 99.5707 70.4504C98.8417 70.1375 98.1056 69.8404 97.3695 69.5418C96.1158 69.0318 95.5043 68.1478 95.4885 66.7856C95.4783 65.9364 95.4942 65.0858 95.484 64.2365C95.4725 63.4222 95.1304 63.0758 94.3233 63.0729C92.6235 63.0657 90.9236 63.0657 89.2238 63.0729C88.4167 63.0758 88.0847 63.4135 88.0732 64.2395C88.0601 65.0713 88.079 65.9031 88.0674 66.7349C88.0457 68.1942 87.4342 69.0478 86.0778 69.581C85.3386 69.8708 84.6097 70.1839 83.8779 70.4954C82.7013 70.9954 81.6492 70.7954 80.7304 69.9245C80.0885 69.3143 79.477 68.6724 78.8436 68.0536C78.2495 67.4725 77.8003 67.4696 77.2104 68.055C76.0033 69.2521 74.8006 70.4533 73.605 71.6606C73.0297 72.2402 73.034 72.7053 73.6138 73.2965C74.476 74.1733 75.3513 75.037 76.2178 75.9095C76.357 76.05 76.4989 76.1949 76.6004 76.3629C76.8395 76.7571 76.7613 77.1411 76.4496 77.4513C76.1367 77.7628 75.7425 77.831 75.3614 77.5832C75.1222 77.4281 74.9179 77.215 74.7136 77.0122C73.892 76.1978 73.0674 75.3849 72.2601 74.5558C71.0024 73.2632 71.0038 71.659 72.2718 70.3736C73.4775 69.1492 74.6933 67.9363 75.9164 66.7292C77.2278 65.435 78.8276 65.4393 80.1392 66.7292C80.7333 67.3117 81.3246 67.8957 81.9042 68.4926C82.3071 68.9086 82.7331 69.0028 83.2707 68.7492C83.907 68.4492 84.5604 68.187 85.2154 67.9304C86.1096 67.5797 86.2082 67.4493 86.2154 66.5015C86.2226 65.5988 86.1835 64.6902 86.2603 63.7917C86.3893 62.2686 87.5008 61.2658 89.0354 61.2325C89.9571 61.2122 90.8801 61.2282 91.8018 61.2282Z" fill="#5D6DFD"/>
<path d="M91.8121 74.2079C97.6289 74.2543 102.553 78.2931 103.583 84.0085C104.309 88.0313 103.221 91.5875 100.411 94.5886C99.9707 95.0596 99.4302 95.1234 99.0258 94.7727C98.5997 94.4031 98.5896 93.8379 99.0621 93.3424C100.536 91.7961 101.488 89.9906 101.859 87.8835C102.614 83.6042 100.523 79.3452 96.6043 77.186C92.9178 75.1542 88.0964 75.7673 84.962 78.6641C84.8156 78.7988 84.6721 78.9379 84.5113 79.0539C84.0765 79.3668 83.5636 79.3206 83.2433 78.9553C82.9231 78.5886 82.9202 78.0467 83.3172 77.6874C83.9056 77.1554 84.5056 76.6236 85.1633 76.1875C87.172 74.8571 89.3949 74.1978 91.8106 74.2095L91.8121 74.2079Z" fill="#407BFF"/>
<path d="M79.7408 89.9364C84.397 89.9855 88.1213 93.7128 88.0589 98.2935C87.9865 103.541 84.1897 106.503 79.7351 106.559C75.0081 106.62 71.3635 102.787 71.4171 98.0065C71.4663 93.5896 75.2833 89.8885 79.7408 89.9364ZM86.1968 98.2326C86.1795 94.6329 83.271 91.7521 79.6944 91.7897C76.0644 91.8289 73.2386 94.7155 73.2589 98.363C73.2792 101.895 76.2021 104.742 79.7931 104.729C83.3363 104.716 86.2142 101.797 86.1968 98.2326Z" fill="#407BFF"/>
</g>
</g>
<defs>
<filter id="filter0_b_56_125" x="-40" y="-40" width="258" height="258" filterUnits="userSpaceOnUse" color-interpolation-filters="sRGB">
<feFlood flood-opacity="0" result="BackgroundImageFix"/>
<feGaussianBlur in="BackgroundImageFix" stdDeviation="20"/>
<feComposite in2="SourceAlpha" operator="in" result="effect1_backgroundBlur_56_125"/>
<feBlend mode="normal" in="SourceGraphic" in2="effect1_backgroundBlur_56_125" result="shape"/>
</filter>
<clipPath id="clip0_56_125">
<rect width="100" height="100" fill="white" transform="translate(39 39)"/>
</clipPath>
</defs>
</svg>
