<svg width="100" height="100" viewBox="0 0 100 100" fill="none" xmlns="http://www.w3.org/2000/svg">
<g clip-path="url(#clip0_16_339)">
<mask id="mask0_16_339" style="mask-type:luminance" maskUnits="userSpaceOnUse" x="22" y="22" width="55" height="56">
<path d="M76.4268 22.2222H22.2222V77.7778H76.4268V22.2222Z" fill="white"/>
</mask>
<g mask="url(#mask0_16_339)">
<path d="M32.1067 31.5599C32.1067 30.9078 32.1067 30.3378 32.1067 29.7667C32.1067 27.6003 32.1045 25.4327 32.1067 23.2661C32.1078 22.5207 32.2867 22.3352 33.0132 22.3352C43.9013 22.3329 54.7904 22.3329 65.6783 22.3352C66.3639 22.3352 66.5539 22.5352 66.555 23.2395C66.5572 25.7216 66.5561 28.2024 66.5561 30.6845C66.5561 30.9422 66.5561 31.2011 66.5561 31.5277C66.7817 31.5388 66.9761 31.5577 67.1706 31.5577C69.1336 31.5588 71.0957 31.5554 73.0589 31.5577C75.0832 31.5588 76.312 32.7821 76.3131 34.8097C76.3153 45.2 76.3153 55.5892 76.3131 65.9795C76.3131 67.9171 75.0077 69.2159 73.0656 69.217C67.7693 69.2203 62.4731 69.217 57.1768 69.217C56.919 69.217 56.6603 69.217 56.357 69.217V76.2909C56.9224 76.2909 57.4879 76.2909 58.0535 76.2909C58.8678 76.2909 59.6833 76.2875 60.4977 76.292C61.161 76.2953 61.4421 76.4953 61.4565 76.954C61.4721 77.4385 61.1721 77.6652 60.4888 77.6652C53.2483 77.6663 46.0078 77.6652 38.7672 77.6652C38.545 77.6652 38.3228 77.6685 38.1006 77.6652C37.4963 77.6574 37.2152 77.4463 37.2018 76.9963C37.1885 76.5275 37.4785 76.2953 38.1195 76.292C39.3228 76.2853 40.5271 76.2886 41.7303 76.2875C41.9114 76.2875 42.0925 76.2875 42.3103 76.2875V69.2159C42.0925 69.2159 41.8625 69.2159 41.6325 69.2159C36.3174 69.2159 31.0034 69.2159 25.6882 69.2147C23.5996 69.2147 22.3474 67.9514 22.3474 65.8517C22.3474 55.5359 22.3663 45.22 22.3307 34.9042C22.324 32.8999 23.8074 31.4567 25.6893 31.5399C27.5925 31.6243 29.5035 31.5588 31.41 31.5577C31.6111 31.5577 31.8122 31.5577 32.1022 31.5577L32.1067 31.5599ZM33.4088 29.4713V60.551H65.244V29.4713H33.4088ZM23.6407 61.9109C23.6407 63.2874 23.6407 64.5995 23.6407 65.9128C23.6418 67.216 24.3528 67.9238 25.6693 67.9249C30.1879 67.9271 34.7064 67.926 39.225 67.9271C50.484 67.9271 61.7432 67.9282 73.0022 67.9271C74.2565 67.9271 74.9277 67.2638 74.941 66.0195C74.9488 65.205 74.9421 64.3896 74.9421 63.5752C74.9421 63.0274 74.9421 62.4809 74.9421 61.912L23.6407 61.9109ZM32.0689 60.5699V32.8143C31.8145 32.8143 31.5956 32.8143 31.3778 32.8143C29.4713 32.8143 27.5647 32.8099 25.6593 32.8143C24.3061 32.8177 23.6429 33.4786 23.6418 34.8231C23.6407 43.2079 23.6418 51.5928 23.6418 59.9777C23.6418 60.1721 23.6418 60.3665 23.6418 60.5699H32.0689ZM66.5961 32.8143V60.5554H75.0232C75.0232 60.331 75.0232 60.1488 75.0232 59.9665C75.0232 51.5817 75.0232 43.1968 75.0232 34.812C75.0232 33.472 74.3577 32.8177 72.9967 32.8143C71.2202 32.811 69.4436 32.8143 67.6671 32.8143C67.3204 32.8143 66.9728 32.8143 66.5961 32.8143ZM33.3665 23.5872C33.3665 25.0004 33.3865 26.3292 33.3554 27.657C33.3443 28.1246 33.5254 28.2057 33.9377 28.2013C35.5664 28.1824 37.1952 28.1924 38.8239 28.1935C47.4299 28.1935 56.037 28.1902 64.6429 28.2079C65.1985 28.2091 65.3274 28.0313 65.3085 27.5125C65.2707 26.4403 65.2707 25.3649 65.3085 24.2928C65.3274 23.7506 65.1952 23.5717 64.6096 23.5728C55.4114 23.5928 46.2122 23.5872 37.014 23.5872C35.832 23.5872 34.6486 23.5872 33.3665 23.5872ZM55.096 69.1603H43.6802V76.1809H55.096V69.1603Z" fill="#5D6DFD"/>
<path d="M35.7206 39.9814C35.7284 35.9716 38.7803 32.5386 42.7012 32.1286C46.873 31.6921 50.5394 34.3218 51.396 38.3793C51.4949 38.847 51.5149 39.3325 51.556 39.8102C51.596 40.2825 51.416 40.6169 50.906 40.6625C50.4894 40.7002 50.2438 40.3947 50.2149 39.8491C50.0594 36.905 48.2584 34.4729 45.5553 33.6564C42.9588 32.8708 40.6557 33.4819 38.7925 35.4195C36.9105 37.3782 36.3805 39.7425 37.346 42.2968C38.3048 44.8298 40.2124 46.2697 42.9223 46.5986C43.1421 46.6252 43.3655 46.6297 43.5866 46.653C43.9988 46.6964 44.2332 46.9197 44.2199 47.3441C44.2066 47.7729 43.9288 48.0284 43.5388 47.9862C42.7167 47.8951 41.8678 47.8307 41.0924 47.5697C37.8348 46.4741 35.7128 43.4289 35.7206 39.9814Z" fill="#5D6DFD"/>
<path d="M41.8089 39.064C41.8067 38.5151 42.2721 38.2373 42.7988 38.4451C44.072 38.9451 45.3409 39.4561 46.6118 39.9627C48.3461 40.655 50.0793 41.3493 51.8136 42.0393C52.1681 42.1804 52.5324 42.3248 52.5013 42.7902C52.4702 43.2547 52.087 43.3469 51.7214 43.4514C50.6371 43.7614 49.5604 44.098 48.4706 44.3869C48.0839 44.4891 47.8872 44.6712 47.7884 45.0623C47.5084 46.1734 47.1852 47.2733 46.8863 48.3798C46.7907 48.7321 46.6907 49.0898 46.2507 49.1087C45.8174 49.1276 45.674 48.7932 45.5374 48.4509C44.3386 45.4457 43.1343 42.4437 41.9322 39.4394C41.8778 39.3027 41.84 39.1607 41.8078 39.0629L41.8089 39.064ZM43.6265 40.0616C44.4775 42.2004 45.2764 44.2091 46.1385 46.3755C46.304 45.8001 46.4796 45.4068 46.5229 44.999C46.6429 43.8591 47.2428 43.2625 48.3761 43.1125C48.8617 43.048 49.3282 42.8425 49.9515 42.6582C47.7728 41.7637 45.764 40.9394 43.6265 40.0616Z" fill="#5D6DFD"/>
<path d="M54.2217 54.99C51.372 54.99 48.521 54.99 45.6713 54.9867C45.4891 54.9867 45.2524 55.0133 45.1357 54.9155C44.9435 54.7533 44.7114 54.4967 44.7159 54.2844C44.7203 54.0757 44.9657 53.8246 45.1691 53.6835C45.3124 53.5835 45.5613 53.6179 45.7635 53.6168C51.3531 53.6135 56.9427 53.6135 62.5321 53.6146C63.3832 53.6146 63.7021 53.8023 63.7066 54.2922C63.711 54.7933 63.3799 54.9911 62.551 54.9911C59.7746 54.9911 56.9982 54.99 54.2217 54.99Z" fill="#5D6DFD"/>
<path d="M57.2748 48.5909C55.4238 48.5909 53.5728 48.5942 51.7229 48.5886C51.1329 48.5875 50.7798 48.2142 50.9207 47.7465C51.0507 47.3121 51.3952 47.2388 51.7985 47.2399C54.5004 47.2465 57.2025 47.2421 59.9045 47.2421C60.8667 47.2421 61.8288 47.2399 62.7921 47.2443C63.3642 47.2465 63.6875 47.4877 63.702 47.911C63.7175 48.3542 63.432 48.5886 62.8277 48.5897C60.9767 48.5953 59.1257 48.592 57.2759 48.592L57.2748 48.5909Z" fill="#5D6DFD"/>
<path d="M59.3939 40.8714C60.5395 40.8714 61.6849 40.8669 62.8314 40.8725C63.437 40.8758 63.7092 41.0969 63.7047 41.5512C63.7003 41.9935 63.407 42.2223 62.8125 42.2235C60.4839 42.2268 58.1563 42.2279 55.8275 42.2235C55.3221 42.2235 54.9443 41.9035 54.971 41.4858C55.0043 40.9825 55.3565 40.868 55.7909 40.8691C56.992 40.8725 58.1929 40.8703 59.3939 40.8691V40.8714Z" fill="#5D6DFD"/>
<path d="M60.4598 34.5712C61.2531 34.5712 62.0475 34.5812 62.8407 34.5679C63.3074 34.5601 63.6741 34.6923 63.6907 35.2101C63.7074 35.7277 63.3141 35.8344 62.893 35.8355C61.2687 35.84 59.6443 35.8366 58.02 35.8389C57.5778 35.8389 57.2245 35.6789 57.2212 35.1968C57.2178 34.7012 57.5845 34.569 58.0234 34.5712C58.8355 34.5757 59.6477 34.5712 60.4598 34.5712Z" fill="#5D6DFD"/>
<path d="M49.3556 62.3428C50.8489 62.3584 51.9166 63.4606 51.8954 64.9682C51.8754 66.4247 50.7689 67.4879 49.29 67.4724C47.8413 67.4568 46.7414 66.2959 46.767 64.8093C46.7914 63.3972 47.9135 62.3284 49.3556 62.3428ZM50.6367 64.9149C50.6456 64.2293 50.0145 63.5984 49.3211 63.5984C48.6302 63.5984 48.0446 64.1671 48.0224 64.8604C48.0013 65.5492 48.6146 66.197 49.3023 66.2125C49.99 66.2281 50.6278 65.6081 50.6367 64.9149Z" fill="#5D6DFD"/>
<path d="M40.7166 25.0936C41.0477 25.0936 41.3799 25.0869 41.711 25.0947C42.1486 25.1058 42.4164 25.3358 42.4142 25.7736C42.412 26.1825 42.1509 26.4247 41.7466 26.4358C41.0288 26.4558 40.3099 26.4558 39.5922 26.4358C39.1545 26.4247 38.9011 26.1525 38.9167 25.7247C38.9311 25.3192 39.1978 25.1003 39.6122 25.0936C39.98 25.0881 40.3488 25.0936 40.7166 25.0936Z" fill="#5D6DFD"/>
<path d="M45.3306 25.0922C45.6627 25.0922 45.996 25.0922 46.3282 25.0922C46.8116 25.0922 47.0616 25.3867 47.0627 25.8178C47.0627 26.2243 46.7638 26.4365 46.3571 26.4421C45.6738 26.4499 44.9895 26.4565 44.305 26.441C43.8384 26.4299 43.5285 26.1221 43.5696 25.7233C43.6152 25.2789 43.8995 25.09 44.3317 25.0944C44.6639 25.0978 44.9973 25.0944 45.3295 25.0944L45.3306 25.0922Z" fill="#5D6DFD"/>
<path d="M76.4257 34.8087C76.4257 32.7355 75.1359 31.4468 73.0616 31.4457H71.995H68.112H67.172C67.0442 31.4457 66.9142 31.4368 66.7766 31.4279C66.741 31.4257 66.7054 31.4235 66.6677 31.4212V28.5537C66.6677 26.7817 66.6677 25.0096 66.6666 23.2386C66.6666 22.4697 66.4254 22.223 65.6788 22.223C60.0581 22.2219 54.4375 22.2208 48.8157 22.2208C43.5484 22.2208 38.2799 22.2208 33.0125 22.2219C32.2236 22.2219 31.996 22.4553 31.9949 23.2642C31.9927 24.8207 31.9927 26.3772 31.9938 27.9337V31.4468H31.4127C30.8304 31.4468 30.2395 31.4535 29.6673 31.459C29.095 31.4646 28.5041 31.4712 27.9218 31.4712C27.0629 31.4712 26.3553 31.4579 25.6953 31.429C25.642 31.4268 25.5886 31.4257 25.5364 31.4257C24.6466 31.4257 23.821 31.7624 23.2123 32.3733C22.5711 33.0189 22.2189 33.9176 22.2223 34.9054C22.2489 42.4482 22.2456 50.1164 22.2411 57.5325C22.24 60.3055 22.2389 63.0787 22.2389 65.8518C22.2389 68.0261 23.5299 69.3249 25.6909 69.326C28.6928 69.3271 31.6938 69.3271 34.6946 69.3271H42.2018V76.1765H40.1564C39.4775 76.1765 38.7999 76.1765 38.121 76.181C37.7243 76.1832 37.4488 76.2687 37.28 76.4443C37.1489 76.5799 37.0867 76.7665 37.0934 76.9999C37.1078 77.5142 37.4377 77.7686 38.101 77.7775C38.1743 77.7775 38.2466 77.7786 38.3199 77.7786H38.7699L49.2479 77.7775C52.9953 77.7775 56.7439 77.7775 60.4914 77.7775C60.9181 77.7775 61.2103 77.6908 61.3836 77.5119C61.5148 77.3764 61.577 77.1887 61.5703 76.9521C61.5492 76.2743 60.987 76.1843 60.5003 76.1821C60.167 76.1799 59.8327 76.1799 59.4993 76.1799H58.055L56.4695 76.181V69.3293C56.4695 69.3293 65.7477 69.3315 67.8009 69.3315C69.5563 69.3315 71.3117 69.3315 73.066 69.3304C75.0747 69.3304 76.4235 67.9839 76.4246 65.9818C76.4268 55.9349 76.4268 45.4479 76.4246 34.8121L76.4257 34.8087ZM33.4803 24.7807C33.4792 24.424 33.477 24.064 33.477 23.6974H47.3836C52.5254 23.6974 58.5938 23.6974 64.6167 23.6829C64.8734 23.6829 65.0234 23.7185 65.101 23.7996C65.1777 23.8796 65.2066 24.0251 65.1977 24.2874C65.1599 25.3483 65.1599 26.435 65.1977 27.5149C65.2066 27.7671 65.1788 27.9071 65.1043 27.9837C65.0311 28.0604 64.8867 28.0949 64.6434 28.0949C58.2293 28.0815 51.8132 28.0804 45.2571 28.0804H38.8232C38.3954 28.0804 37.9677 28.0804 37.541 28.0782C37.1011 28.0782 36.6611 28.0771 36.2211 28.0771C35.3091 28.0771 34.6046 28.0804 33.9368 28.0882H33.9057C33.7103 28.0882 33.6025 28.0637 33.5448 28.006C33.4881 27.9482 33.4625 27.8349 33.467 27.6582C33.4892 26.7094 33.4859 25.7717 33.4814 24.7796L33.4803 24.7807ZM65.131 29.5825V60.4389H33.5192V29.5814H65.1321L65.131 29.5825ZM23.7521 34.8221C23.7521 33.5311 24.3577 32.9278 25.6586 32.9244C26.3464 32.9233 27.0352 32.9222 27.7229 32.9222C28.3741 32.9222 31.9571 32.9244 31.9571 32.9244V60.4578H23.751V53.3094C23.751 47.1478 23.7521 40.9849 23.7521 34.8221ZM54.9841 76.0676H43.7906V69.2693H54.9841V76.0676ZM74.8292 66.0174C74.817 67.2106 74.2025 67.815 73.0016 67.815C68.5874 67.815 64.1734 67.815 59.7593 67.815H37.9477H34.8957C31.8204 67.815 28.745 67.815 25.6698 67.8128C24.4166 67.8128 23.7532 67.155 23.7521 65.9118C23.7521 65.0019 23.7521 64.0908 23.7521 63.1599V62.021H74.8303V63.573C74.8303 63.8242 74.8303 64.0753 74.8314 64.3253C74.8325 64.8797 74.8348 65.4529 74.8281 66.0162L74.8292 66.0174ZM74.9125 60.4433H66.7077V32.9244H70.9395C71.625 32.9244 72.3104 32.9244 72.996 32.9244C74.3025 32.9267 74.9114 33.5267 74.9125 34.811C74.9125 41.1804 74.9125 47.5489 74.9125 53.9183V60.4433Z" fill="#5D6DFD"/>
<path d="M41.0573 47.6732C41.7506 47.9065 42.5005 47.9854 43.2271 48.063C43.3271 48.0742 43.4283 48.0842 43.5271 48.0953C43.5594 48.0986 43.5916 48.1008 43.6227 48.1008C44.0314 48.1008 44.3159 47.7976 44.3303 47.3465C44.3459 46.8787 44.0848 46.5921 43.5971 46.541C43.4949 46.5298 43.3916 46.5232 43.2883 46.5165C43.1716 46.5087 43.0516 46.501 42.9349 46.4865C40.233 46.1589 38.3864 44.7355 37.4487 42.2558C36.511 39.7771 37.0031 37.4396 38.8708 35.4953C40.1852 34.1276 41.7162 33.4332 43.4205 33.4332C44.0937 33.4332 44.8003 33.5432 45.5203 33.761C48.1501 34.5564 49.9488 36.9473 50.101 39.8537C50.1321 40.4393 50.3999 40.7748 50.8355 40.7748C50.861 40.7748 50.8866 40.7737 50.9131 40.7715C51.4464 40.7237 51.7131 40.3782 51.6642 39.7993C51.6564 39.7015 51.6487 39.6037 51.6409 39.5048C51.612 39.125 51.582 38.7328 51.502 38.3539C50.7088 34.5942 47.4578 31.9689 43.5983 31.9689C43.2971 31.9689 42.9905 31.9844 42.6871 32.0167C38.7252 32.4311 35.6155 35.9285 35.6066 39.9793C35.5999 43.4823 37.7887 46.5743 41.0551 47.6732H41.0573Z" fill="#5D6DFD"/>
<path d="M45.7035 39.4801C44.7648 39.1047 43.7937 38.7158 42.836 38.3403C42.7071 38.2892 42.5794 38.2636 42.4538 38.2636C42.2438 38.2636 42.0516 38.3392 41.9149 38.4769C41.7694 38.6225 41.6927 38.8258 41.6938 39.0636V39.0814L41.6994 39.0981C41.7082 39.1258 41.7182 39.1569 41.7282 39.1914C41.7538 39.2757 41.786 39.3801 41.826 39.4812C42.256 40.5568 42.6871 41.6322 43.1171 42.7065C43.8892 44.6342 44.6614 46.5629 45.4302 48.4917C45.5602 48.8161 45.7213 49.2206 46.2113 49.2206C46.2246 49.2206 46.238 49.2206 46.2513 49.2206C46.7756 49.1972 46.8945 48.7606 46.9889 48.4094C47.0956 48.0128 47.2067 47.6174 47.3167 47.2218C47.5112 46.5251 47.7123 45.8042 47.8923 45.0897C47.9789 44.7453 48.1367 44.5897 48.4955 44.4942C49.2032 44.3065 49.9166 44.0965 50.6064 43.8921C50.9864 43.7799 51.3675 43.6676 51.7487 43.5588L51.7887 43.5476C52.1385 43.4476 52.573 43.3243 52.6085 42.7987C52.6452 42.2522 52.2052 42.0778 51.852 41.9367C50.6953 41.4767 49.5388 41.0144 48.3834 40.5524L45.7035 39.4801ZM49.3399 42.7343C48.9821 42.8543 48.6721 42.9587 48.3578 42.9999C47.17 43.1565 46.5324 43.8065 46.4091 44.9853C46.3824 45.2442 46.2957 45.5064 46.1946 45.8108C46.1713 45.8819 46.1457 45.9575 46.1213 46.0375L43.8237 40.2612L49.621 42.6411C49.5244 42.6722 49.431 42.7032 49.3399 42.7343Z" fill="#5D6DFD"/>
<path d="M62.5337 53.504H56.882C53.1767 53.504 49.4703 53.504 45.7639 53.5062C45.725 53.5062 45.6839 53.5051 45.6428 53.504C45.5973 53.5029 45.5517 53.5007 45.5062 53.5007C45.3739 53.5007 45.2228 53.5118 45.1073 53.5929C44.8806 53.7518 44.613 54.0284 44.6074 54.2829C44.6007 54.575 44.9262 54.8828 45.0662 55.0016C45.1706 55.0905 45.3273 55.1028 45.465 55.1028C45.5017 55.1028 45.5384 55.1028 45.575 55.1005C45.6084 55.1005 45.6395 55.0994 45.6728 55.0994C47.7871 55.1016 49.9014 55.1016 52.0145 55.1028H57.6196C59.2639 55.1028 60.9082 55.1028 62.5525 55.1039H62.5548C63.1081 55.1039 63.4403 55.0172 63.6325 54.8239C63.7603 54.695 63.8214 54.5216 63.8192 54.2929C63.8125 53.6007 63.1981 53.504 62.5337 53.504Z" fill="#5D6DFD"/>
<path d="M51.72 48.6996C52.5545 48.7018 53.3877 48.7029 54.2221 48.7029H57.0429H60.4227C61.2238 48.7029 62.0247 48.7029 62.8259 48.6996C63.1959 48.6996 63.4657 48.6118 63.6291 48.4418C63.7568 48.3085 63.8179 48.1275 63.8102 47.9053C63.7924 47.4164 63.4203 47.1342 62.7892 47.1319C62.3047 47.1297 61.8203 47.1297 61.3349 47.1297L55.4786 47.1319C54.251 47.1319 53.0234 47.1319 51.7878 47.1286C51.3923 47.1286 50.9657 47.1986 50.8113 47.7153C50.7413 47.9486 50.7757 48.1753 50.9091 48.354C51.0724 48.574 51.3678 48.7007 51.72 48.7018V48.6996Z" fill="#407BFF"/>
<path d="M55.8239 42.3345C56.8482 42.3356 57.8727 42.3367 58.897 42.3367C60.2013 42.3367 61.5057 42.3356 62.81 42.3334C63.6321 42.3322 63.8088 41.9078 63.8132 41.5524C63.8154 41.3224 63.7521 41.139 63.6232 41.009C63.461 40.8446 63.2011 40.7635 62.8289 40.7613C62.3611 40.759 61.8934 40.7579 61.4257 40.7579C61.0757 40.7579 57.3215 40.7602 57.3215 40.7602C56.8104 40.7602 56.2995 40.7602 55.7806 40.7579C55.5639 40.7579 54.9039 40.7579 54.8572 41.479C54.8439 41.6835 54.915 41.8789 55.0572 42.0322C55.2372 42.2245 55.5161 42.3334 55.8239 42.3345Z" fill="#407BFF"/>
<path d="M58.0205 35.9482H60.6102C61.3724 35.9482 62.1334 35.9482 62.8956 35.9449C63.25 35.9449 63.4843 35.8704 63.6343 35.7149C63.7532 35.5917 63.811 35.4195 63.8032 35.205C63.7877 34.7072 63.4766 34.455 62.8812 34.455H62.84C62.5545 34.4606 62.2456 34.4628 61.87 34.4628C61.6356 34.4628 61.4013 34.4628 61.1657 34.4606C60.9302 34.4606 60.6957 34.4583 60.4613 34.4583H59.0248C58.6914 34.4595 58.3581 34.4584 58.026 34.4572H58.0127C57.6816 34.4572 57.4482 34.5317 57.296 34.6839C57.1727 34.8072 57.1116 34.9795 57.1127 35.195C57.116 35.6804 57.4382 35.9482 58.0205 35.9482Z" fill="#407BFF"/>
<path d="M49.3582 62.2314H49.3282C47.8306 62.2314 46.6829 63.3381 46.6585 64.8068C46.6452 65.5679 46.9163 66.2733 47.4206 66.7922C47.9083 67.2944 48.5728 67.5743 49.2904 67.5821H49.3249C50.8581 67.5821 51.987 66.4833 52.0081 64.969C52.0181 64.2057 51.7559 63.5103 51.267 63.0103C50.7838 62.5158 50.106 62.2392 49.3582 62.2314ZM49.3293 66.1011H49.3071C49.0083 66.0944 48.7072 65.9522 48.4795 65.7122C48.2517 65.4724 48.1261 65.1624 48.135 64.8635C48.155 64.2268 48.6872 63.7081 49.3215 63.7081C49.6271 63.7081 49.936 63.8446 50.1704 64.0824C50.4004 64.3157 50.5304 64.6179 50.5271 64.9124C50.5193 65.5346 49.9482 66.1011 49.3293 66.1011Z" fill="#407BFF"/>
<path d="M39.5916 26.5485C39.9516 26.5574 40.3138 26.5629 40.6671 26.5629C41.0203 26.5629 41.3959 26.5574 41.7514 26.5485C42.2281 26.5352 42.5246 26.2396 42.528 25.7752C42.5302 25.2929 42.227 24.9975 41.7159 24.9842C41.5892 24.9808 41.4614 24.9797 41.3348 24.9797C41.2281 24.9797 41.1203 24.9797 41.0137 24.9808C40.9159 24.9808 40.817 24.982 40.7194 24.982H40.0494C39.9038 24.9808 39.7583 24.982 39.6127 24.9831C39.126 24.9897 38.8251 25.2663 38.8084 25.7207C38.7995 25.9607 38.8673 26.1652 39.0051 26.3118C39.1438 26.4596 39.3471 26.5418 39.5916 26.5485Z" fill="#407BFF"/>
<path d="M44.3002 26.5507C44.5845 26.5574 44.8878 26.5607 45.2267 26.5607C45.6034 26.5607 45.9789 26.5563 46.3555 26.5518C46.851 26.5463 47.171 26.2574 47.171 25.8163C47.171 25.3007 46.8466 24.9808 46.3255 24.9797H45.3278L45.2167 24.982H44.7134C44.5856 24.982 44.4578 24.982 44.3301 24.982H44.3158C43.8102 24.982 43.5046 25.2407 43.4557 25.7107C43.4346 25.9185 43.4958 26.1152 43.628 26.2663C43.7835 26.4429 44.0213 26.544 44.298 26.5507H44.3002Z" fill="#407BFF"/>
<path d="M34.9384 26.5504C35.0662 26.5549 35.2028 26.5582 35.3684 26.5582C35.4839 26.5582 35.5984 26.5571 35.7139 26.556C35.8251 26.556 35.9362 26.5537 36.0528 26.5537C36.1584 26.5537 36.2638 26.556 36.3694 26.5571C36.476 26.5593 36.5827 26.5604 36.6894 26.5604C36.8494 26.5604 36.9805 26.5571 37.1027 26.5482C37.5794 26.516 37.866 26.2249 37.8682 25.7704C37.8705 25.3006 37.5794 25.0017 37.1094 24.9906C36.776 24.9828 36.4216 24.9783 36.0273 24.9783C35.6695 24.9783 35.3106 24.9817 34.9528 24.9861C34.6995 24.9894 34.4907 25.0683 34.3507 25.2139C34.2152 25.355 34.1474 25.5537 34.153 25.7893C34.1652 26.2404 34.4652 26.5326 34.9384 26.5504Z" fill="#407BFF"/>
<path d="M36.0511 26.4428C35.6834 26.4428 35.3146 26.4539 34.9468 26.4406C34.5357 26.425 34.2768 26.1872 34.2668 25.7872C34.2557 25.3561 34.5146 25.1029 34.9568 25.0974C35.6745 25.0885 36.3922 25.084 37.11 25.1018C37.5221 25.1118 37.7632 25.3572 37.761 25.7706C37.7588 26.1861 37.501 26.4117 37.1 26.4383C36.7522 26.4617 36.4011 26.4417 36.0511 26.4428Z" fill="#407BFF"/>
</g>
</g>
<defs>
<clipPath id="clip0_16_339">
<rect width="100" height="100" fill="white"/>
</clipPath>
</defs>
</svg>
