<svg width="178" height="178" viewBox="0 0 178 178" fill="none" xmlns="http://www.w3.org/2000/svg">
<g filter="url(#filter0_b_56_122)">
<circle cx="89" cy="89" r="89" fill="#1A2D47" fill-opacity="0.3"/>
</g>
<g clip-path="url(#clip0_56_122)">
<mask id="mask0_56_122" style="mask-type:luminance" maskUnits="userSpaceOnUse" x="61" y="61" width="55" height="56">
<path d="M115.917 61.2222H61.2222V116.778H115.917V61.2222Z" fill="white"/>
</mask>
<g mask="url(#mask0_56_122)">
<path d="M115.915 87.0367C115.912 86.2149 115.546 85.8442 114.727 85.8356C114.501 85.8326 114.274 85.8326 114.048 85.8326H113.102C112.27 81.3049 110.578 77.3869 108.075 74.1843C105.664 71.1012 102.422 68.5836 98.4309 66.6932H100.368C101.435 66.6932 102.696 66.6932 103.955 66.7104C104.046 66.7104 104.226 66.8618 104.313 67.0089C104.832 67.8914 105.723 68.4178 106.696 68.4178C106.923 68.4178 107.149 68.3889 107.371 68.3326C108.614 68.014 109.448 66.9454 109.442 65.6707C109.438 64.4192 108.614 63.365 107.396 63.0464C107.165 62.9858 106.929 62.9556 106.692 62.9556C105.699 62.9556 104.799 63.4933 104.342 64.36C104.195 64.6412 104.053 64.6858 103.766 64.6858C101.932 64.6801 100.098 64.6786 98.2637 64.6786H92.9341C92.1468 62.494 90.7177 61.3015 88.8013 61.2265C88.7349 61.2236 88.6672 61.2222 88.6009 61.2222C87.7329 61.2222 86.9252 61.4515 86.2029 61.9057C85.2137 62.5258 84.5445 63.4587 84.2115 64.6786H80.879C78.4147 64.6786 75.7744 64.6786 73.1745 64.6643C73.1009 64.6643 72.9337 64.5374 72.8515 64.3946C72.3251 63.4933 71.4311 62.954 70.4593 62.954C70.2256 62.954 69.9891 62.9843 69.7569 63.0449C68.5356 63.3621 67.7108 64.4162 67.7036 65.6664C67.6977 66.9411 68.5284 68.0111 69.7729 68.3312C70.0036 68.3904 70.2386 68.4207 70.4693 68.4207C71.4586 68.4207 72.3467 67.8699 72.8429 66.9483C72.9509 66.7465 73.0505 66.6887 73.297 66.6887C73.9791 66.6946 74.6612 66.696 75.3433 66.696H77.5611L78.7118 66.6946C74.7116 68.5922 71.4642 71.1157 69.0504 74.2031C66.547 77.4057 64.8599 81.3178 64.0337 85.8342H63.0776C62.8541 85.8326 62.6336 85.8342 62.4115 85.8342C61.6068 85.8428 61.2319 86.2076 61.2276 86.9833C61.2204 88.6762 61.2204 90.3287 61.2276 91.8949C61.2319 92.636 61.6169 93.0167 62.3726 93.0268C62.6033 93.0296 62.834 93.0311 63.0617 93.0311C63.2449 93.0311 63.8563 93.0282 63.9804 93.0282C65.1758 98.8106 67.5463 103.506 71.0244 106.982C74.5026 110.459 79.1948 112.825 84.9713 114.016C84.9713 114.123 84.9743 114.23 84.9758 114.338C84.9815 114.675 84.9887 115.024 84.9627 115.367C84.918 115.98 85.117 116.432 85.5712 116.747L85.6087 116.773H91.5281L91.5656 116.747C92.0198 116.43 92.2188 115.979 92.1741 115.367C92.1481 115.011 92.1554 114.657 92.1612 114.315C92.1626 114.214 92.164 114.116 92.1655 114.021C97.9508 112.817 102.646 110.443 106.121 106.968C109.595 103.493 111.961 98.8033 113.155 93.0282H114.043C114.264 93.0282 114.487 93.0282 114.71 93.0282C115.537 93.021 115.906 92.6533 115.909 91.8386C115.915 90.3 115.915 88.7282 115.909 87.0353L115.915 87.0367ZM113.875 87.876V90.9749H110.771V87.876H113.875ZM92.1698 111.827C92.1698 111.748 92.1698 111.667 92.1698 111.588C92.1712 111.295 92.1727 110.994 92.1669 110.695C92.1497 109.972 91.7661 109.587 91.058 109.584C90.2361 109.579 89.4156 109.577 88.5937 109.577C87.7718 109.577 86.9252 109.579 86.0918 109.584C85.3823 109.588 84.9959 109.969 84.9743 110.687C84.9656 110.946 84.9627 111.207 84.9584 111.467C84.9555 111.604 84.9541 111.739 84.9512 111.876C80.1711 111.098 75.9949 108.981 72.5327 105.588C69.134 102.254 66.6509 97.3426 66.1765 93.0311C66.2573 93.0311 66.3366 93.0311 66.4159 93.0311C66.5486 93.0311 66.6812 93.0325 66.8138 93.0325C66.9797 93.0325 67.1441 93.0325 67.3099 93.0268C68.0323 93.0094 68.4159 92.6244 68.4188 91.9135C68.4274 90.2682 68.4288 88.5969 68.4188 86.9474C68.4144 86.2379 68.0309 85.8529 67.3099 85.8342C67.072 85.8283 66.8326 85.8269 66.5947 85.8254C66.4404 85.8254 66.2861 85.8254 66.1318 85.8226C66.1288 85.8226 66.1274 85.8211 66.1245 85.8197C66.9148 81.0957 68.9812 76.9846 72.2688 73.5989C75.5552 70.2144 79.6072 68.0269 84.3152 67.0954C85.1531 69.1085 86.5836 70.1279 88.5677 70.1279H88.5937C90.572 70.1193 91.9938 69.0983 92.8216 67.0954C97.3494 67.9894 101.275 70.0472 104.489 73.2124C107.976 76.6457 110.172 80.891 111.02 85.8326C110.924 85.8326 110.467 85.8297 110.336 85.8297C110.169 85.8297 110.004 85.8297 109.84 85.8342C109.113 85.85 108.728 86.2321 108.724 86.9386C108.715 88.5321 108.714 90.1557 108.724 91.9049C108.728 92.6201 109.109 93.0081 109.824 93.0253C109.99 93.0296 110.154 93.0311 110.32 93.0311C110.453 93.0311 110.586 93.0311 110.72 93.0296C110.799 93.0296 110.878 93.0296 110.957 93.0296C109.811 102.411 101.608 110.619 92.1698 111.827ZM90.1165 111.638V114.737H87.0176V111.638H90.1165ZM86.1279 65.6476C86.138 64.3442 87.2512 63.2425 88.5591 63.2425H88.5793C89.2368 63.2482 89.8526 63.5107 90.314 63.9807C90.774 64.4494 91.022 65.0681 91.0133 65.7212C90.9974 67.0493 89.9001 68.1279 88.5605 68.1279C87.9116 68.125 87.3002 67.8683 86.8402 67.4026C86.3744 66.9325 86.122 66.3081 86.1265 65.6463L86.1279 65.6476ZM66.3712 87.8918V90.9907H63.2709V87.8918H66.3712ZM106.708 64.9714V64.8272L106.717 64.9714C107.105 64.9757 107.42 65.2958 107.422 65.6851C107.422 66.0731 107.107 66.3946 106.705 66.4018C106.513 66.4018 106.332 66.324 106.193 66.1812C106.056 66.0399 105.984 65.8568 105.99 65.665C106.001 65.2814 106.323 64.97 106.706 64.97L106.708 64.9714ZM70.4376 64.97V64.8257L70.4405 64.97C70.8226 64.9714 71.1499 65.2958 71.1543 65.6765C71.1572 65.8654 71.0822 66.0471 70.9437 66.1856C70.8052 66.3254 70.6265 66.4018 70.4361 66.4018H70.413C70.0309 66.3889 69.7151 66.0543 69.7223 65.6722C69.7295 65.2915 70.0569 64.97 70.4376 64.97Z" fill="#5D6DFD"/>
<path d="M93.3946 77.2651C92.6939 75.6271 91.9916 73.9889 91.2923 72.3508C91.0673 71.8246 90.7039 71.5808 90.1488 71.5808H90.117C89.6312 71.5894 89.0644 71.5982 88.5107 71.5982C88.0146 71.5982 87.5705 71.591 87.1567 71.5765C87.1307 71.5765 87.1048 71.5765 87.0788 71.5765C86.4487 71.5765 86.0506 71.8533 85.7867 72.4735C83.3902 78.1029 80.8566 84.0181 78.2552 90.0542C78.0491 90.5329 78.0563 90.964 78.2769 91.4529C79.4305 94.0008 80.3764 96.1278 81.2502 98.1467C81.3498 98.3774 81.367 98.7104 81.2921 98.9556C80.9849 99.9549 80.646 100.963 80.3173 101.939C80.1991 102.291 80.0794 102.643 79.9625 102.996C79.765 103.59 79.7664 103.998 79.9698 104.281C80.1702 104.559 80.548 104.689 81.158 104.689C82.2539 104.689 92.7805 104.689 92.7805 104.689C93.872 104.689 94.9621 104.689 96.0537 104.689C96.593 104.689 96.9666 104.549 97.1641 104.274C97.3631 103.997 97.3774 103.594 97.2045 103.075C97.0646 102.654 96.9219 102.235 96.7805 101.815C96.4676 100.891 96.1431 99.9347 95.8519 98.9872C95.7712 98.7278 95.7899 98.3731 95.895 98.1279C96.3595 97.0507 96.8439 95.9592 97.3125 94.9036C97.8259 93.7471 98.3566 92.5517 98.8627 91.3693C98.9998 91.0521 99.0588 90.5444 98.9088 90.1911C97.0819 85.8782 95.2073 81.5003 93.3946 77.2665V77.2651ZM87.5431 73.6501V85.9387C86.1645 86.3222 85.1653 87.1226 84.5712 88.3165C84.0953 89.2726 83.9828 90.2935 84.2338 91.3533C84.7009 93.3246 86.5352 94.7536 88.5944 94.7536C88.6678 94.7536 88.7414 94.7522 88.8164 94.7478C90.9606 94.644 92.7199 92.9872 92.9996 90.8097C93.2346 88.9785 92.2685 86.69 89.6037 85.9372V73.6861C89.67 73.7697 89.7306 73.8519 89.7667 73.9371C91.1942 77.2493 92.6391 80.6192 94.0378 83.8825C94.3146 84.5285 94.5916 85.176 94.8684 85.8233C95.4985 87.2971 96.1503 88.8213 96.7992 90.3167C96.9305 90.6208 96.9334 90.8357 96.8094 91.1097C95.973 92.9468 95.0919 94.9267 94.1142 97.1632C93.9989 97.4271 93.8937 97.4992 93.6167 97.4992C91.9455 97.4919 90.2439 97.4876 88.5598 97.4876C86.8755 97.4876 85.2042 97.4919 83.5214 97.4978C83.2474 97.4978 83.1407 97.4256 83.0269 97.1661C82.636 96.2721 82.2395 95.3808 81.843 94.4883C81.3439 93.365 80.8263 92.2028 80.3317 91.0564C80.2495 90.8675 80.2495 90.5675 80.3317 90.3743C82.6532 84.9164 84.985 79.4843 87.3687 73.9385C87.4105 73.8404 87.4753 73.7482 87.546 73.6501H87.5431ZM82.3807 102.113C82.6677 101.242 82.9374 100.421 83.2373 99.5915C83.282 99.5583 83.4564 99.5122 83.6107 99.5122C85.5921 99.5064 87.5734 99.505 89.5562 99.505H92.8799C93.4019 99.505 93.6644 99.505 93.8085 99.6074C93.9527 99.7097 94.0392 99.9678 94.1964 100.438C94.3738 100.967 94.5498 101.496 94.7328 102.047L94.9348 102.656H82.202C82.2625 102.474 82.3217 102.294 82.3807 102.113ZM90.2944 88.5718C90.7559 89.0347 91.0096 89.6475 91.0096 90.2979C91.0096 91.6317 89.9209 92.7261 88.5871 92.7363H88.5684C87.2244 92.7363 86.1271 91.6375 86.1227 90.2864C86.1213 89.6461 86.3737 89.0361 86.835 88.5718C87.2966 88.1075 87.9037 87.8508 88.5438 87.8493L88.5496 87.7051V87.8493C89.2087 87.8493 89.83 88.106 90.2944 88.5718Z" fill="#5D6DFD"/>
</g>
</g>
<defs>
<filter id="filter0_b_56_122" x="-40" y="-40" width="258" height="258" filterUnits="userSpaceOnUse" color-interpolation-filters="sRGB">
<feFlood flood-opacity="0" result="BackgroundImageFix"/>
<feGaussianBlur in="BackgroundImageFix" stdDeviation="20"/>
<feComposite in2="SourceAlpha" operator="in" result="effect1_backgroundBlur_56_122"/>
<feBlend mode="normal" in="SourceGraphic" in2="effect1_backgroundBlur_56_122" result="shape"/>
</filter>
<clipPath id="clip0_56_122">
<rect width="100" height="100" fill="white" transform="translate(39 39)"/>
</clipPath>
</defs>
</svg>
