<svg width="178" height="178" viewBox="0 0 178 178" fill="none" xmlns="http://www.w3.org/2000/svg">
<g filter="url(#filter0_b_56_123)">
<circle cx="89" cy="89" r="89" fill="#1A2D47" fill-opacity="0.3"/>
</g>
<g clip-path="url(#clip0_56_123)">
<mask id="mask0_56_123" style="mask-type:luminance" maskUnits="userSpaceOnUse" x="61" y="61" width="56" height="56">
<path d="M116.778 61.2222H61.2222V116.561H116.778V61.2222Z" fill="white"/>
</mask>
<g mask="url(#mask0_56_123)">
<path d="M69.6146 116.561C68.329 116.561 67.0449 116.56 65.7593 116.554C63.7904 116.545 62.0586 115.299 61.4504 113.457C61.3886 113.269 61.3371 113.077 61.284 112.872C61.2635 112.796 61.2428 112.718 61.2222 112.641V65.1645C61.2488 65.0996 61.2811 65.0201 61.3032 64.9288C61.8643 62.5756 63.5475 61.2251 65.9228 61.2251C73.7674 61.2238 81.6135 61.2222 89.4594 61.2222C97.3056 61.2222 104.551 61.2222 112.096 61.2251C114.806 61.2251 116.773 63.1851 116.775 65.886C116.781 81.3026 116.779 96.7813 116.77 111.893C116.77 112.344 116.714 112.793 116.608 113.195C116.065 115.268 114.295 116.557 111.987 116.557C106.121 116.557 82.9535 116.557 82.9535 116.557H75.1265C74.2076 116.557 73.2903 116.557 72.3714 116.558C71.4539 116.558 70.535 116.56 69.6161 116.56L69.6146 116.561ZM63.6461 111.602C63.6461 113.354 64.4281 114.134 66.1835 114.134H111.808C113.568 114.134 114.352 113.355 114.352 111.608V76.9114H63.6461V111.6V111.602ZM65.992 63.6476C64.5032 63.6476 63.6476 64.4988 63.6461 65.9846C63.6447 67.765 63.6461 69.5439 63.6461 71.3243V74.4226H114.352V71.2404C114.352 69.4865 114.352 67.7311 114.352 65.9772C114.351 64.4974 113.492 63.649 111.998 63.649H89.0486L65.992 63.6476Z" fill="#5D6DFD"/>
<path d="M84.0414 108.293C83.8779 108.293 83.7115 108.256 83.5494 108.182C82.8897 107.888 82.6763 107.2 83.0061 106.43C86.2474 98.859 89.5431 91.1721 92.8004 83.5807C93.0331 83.0374 93.4646 82.7133 93.9535 82.7133C94.0286 82.7133 94.1067 82.7207 94.1832 82.7354C94.7457 82.846 95.1374 83.354 95.1699 84.0107C95.1639 84.0343 95.1565 84.0593 95.1492 84.0874C95.1139 84.2243 95.0653 84.4113 94.9946 84.5747C91.777 92.0968 88.4915 99.7677 85.2282 107.374C84.9824 107.948 84.5376 108.29 84.0399 108.29L84.0414 108.293Z" fill="#5D6DFD"/>
<path d="M79.2179 103.264C78.8586 103.264 78.5082 103.173 78.3256 103.03C75.4819 100.819 72.6854 98.5661 70.0657 96.4485C69.755 96.1967 69.5826 95.861 69.5826 95.5031C69.5826 95.1438 69.755 94.8081 70.0672 94.5563C72.4911 92.5977 75.099 90.511 78.274 87.9885C78.5317 87.7838 78.8203 87.6763 79.109 87.6763C79.4594 87.6763 79.7819 87.8367 80.0161 88.1268C80.4653 88.6835 80.3607 89.411 79.7599 89.8954C78.3713 91.0175 76.9531 92.15 75.5806 93.2442C74.9681 93.7331 74.3568 94.2204 73.7457 94.7108C73.6308 94.8022 73.519 94.8964 73.3908 95.0025L72.7768 95.5104L73.7561 96.2999C74.1213 96.5943 74.4703 96.8771 74.8222 97.1583C75.4171 97.6354 76.0136 98.1111 76.6085 98.5868C77.6614 99.4277 78.7143 100.268 79.7643 101.112C80.2104 101.47 80.3651 101.871 80.2547 102.374C80.1869 102.681 79.9851 103.202 79.3947 103.256C79.3388 103.262 79.2799 103.264 79.2194 103.264H79.2179Z" fill="#407BFF"/>
<path d="M98.8683 103.325C98.5193 103.325 98.21 103.169 97.9758 102.872C97.5224 102.296 97.646 101.589 98.2925 101.069C99.634 99.9911 100.978 98.9161 102.323 97.8411L104.265 96.2875C104.371 96.2021 104.476 96.1153 104.603 96.0107L105.227 95.4953C105.227 95.4953 101.871 92.8049 100.974 92.0876C100.668 91.8418 100.36 91.5974 100.054 91.3529C99.4573 90.8772 98.861 90.4015 98.2689 89.9215C97.9421 89.6564 97.7418 89.3207 97.7079 88.979C97.6769 88.6771 97.7742 88.3797 97.9862 88.1204C98.2218 87.8333 98.528 87.6817 98.8728 87.6817C99.1775 87.6817 99.4912 87.8024 99.7769 88.0307C102.79 90.4296 105.42 92.5324 107.816 94.4586C108.202 94.7678 108.405 95.1286 108.405 95.4997C108.405 95.8738 108.188 96.2538 107.794 96.5689C105.251 98.6114 102.635 100.702 99.796 102.963C99.4971 103.201 99.1746 103.327 98.8624 103.327L98.8683 103.325Z" fill="#407BFF"/>
<path d="M101.043 70.2611C100.395 70.2611 99.7468 70.2611 99.0989 70.2582C98.2772 70.2553 97.7206 69.7736 97.7132 69.0579C97.7103 68.7296 97.8192 68.4454 98.0297 68.2333C98.2815 67.9786 98.6704 67.8386 99.1225 67.8372C100.708 67.8372 102.294 67.8357 103.882 67.8357C105.469 67.8357 107.055 67.8357 108.641 67.8372C109.096 67.8372 109.485 67.9771 109.737 68.2318C109.946 68.4439 110.055 68.7281 110.054 69.0565C110.048 69.7972 109.497 70.2582 108.616 70.2596C107.989 70.2596 107.362 70.2596 106.734 70.2596H103.885H101.044L101.043 70.2611Z" fill="#407BFF"/>
<path d="M69.1543 70.2579C68.5049 70.255 67.9526 69.7028 67.9497 69.0533C67.9482 68.7367 68.0749 68.4333 68.3075 68.2007C68.5401 67.9665 68.8421 67.8385 69.1601 67.8385H69.1851C69.8361 67.8532 70.3781 68.4128 70.3707 69.0636C70.3618 69.7115 69.8081 70.2595 69.1617 70.2595H69.1572L69.1543 70.2579Z" fill="#407BFF"/>
<path d="M75.7575 70.2581C75.1081 70.2492 74.5603 69.6925 74.5632 69.0417C74.5661 68.3922 75.1184 67.84 75.7678 67.8371C76.4202 67.8371 76.9739 68.3849 76.9827 69.0328C76.9871 69.3524 76.8604 69.6572 76.6278 69.8928C76.3952 70.1285 76.0917 70.2581 75.7722 70.2581H75.7575Z" fill="#407BFF"/>
<path d="M82.3695 70.2581C81.72 70.2492 81.1738 69.6911 81.1767 69.0402C81.1796 68.3893 81.7318 67.8386 82.3828 67.8371C83.0351 67.8371 83.5888 68.3849 83.5961 69.0328C83.5992 69.3524 83.4739 69.6572 83.2413 69.8928C83.0086 70.1285 82.7053 70.2565 82.3857 70.2565H82.3695V70.2581Z" fill="#407BFF"/>
</g>
</g>
<defs>
<filter id="filter0_b_56_123" x="-40" y="-40" width="258" height="258" filterUnits="userSpaceOnUse" color-interpolation-filters="sRGB">
<feFlood flood-opacity="0" result="BackgroundImageFix"/>
<feGaussianBlur in="BackgroundImageFix" stdDeviation="20"/>
<feComposite in2="SourceAlpha" operator="in" result="effect1_backgroundBlur_56_123"/>
<feBlend mode="normal" in="SourceGraphic" in2="effect1_backgroundBlur_56_123" result="shape"/>
</filter>
<clipPath id="clip0_56_123">
<rect width="100" height="100" fill="white" transform="translate(39 39)"/>
</clipPath>
</defs>
</svg>
