<svg width="178" height="178" viewBox="0 0 178 178" fill="none" xmlns="http://www.w3.org/2000/svg">
<g filter="url(#filter0_b_56_124)">
<circle cx="89" cy="89" r="89" fill="#1A2D47" fill-opacity="0.3"/>
</g>
<g clip-path="url(#clip0_56_124)">
<mask id="mask0_56_124" style="mask-type:luminance" maskUnits="userSpaceOnUse" x="61" y="62" width="56" height="53">
<path d="M116.778 62.6111H61.2222V114.682H116.778V62.6111Z" fill="white"/>
</mask>
<g mask="url(#mask0_56_124)">
<path d="M61.2236 64.3446C61.757 62.9895 62.7933 62.6068 64.1861 62.6111C74.5476 62.6431 84.9091 62.6285 95.2706 62.6285C97.1374 62.6285 97.9824 63.475 97.9824 65.3475C97.9824 69.0913 97.9824 72.835 97.9824 76.5786C97.9824 76.7932 97.9824 77.0092 97.9824 77.2889C98.223 77.3004 98.4302 77.3193 98.6374 77.3193C100.899 77.3207 103.158 77.3193 105.419 77.3222C107.164 77.3251 108.053 78.2136 108.054 79.9629C108.057 84.285 108.054 88.6083 108.054 92.9304C108.054 93.142 108.054 93.3536 108.054 93.6275C108.316 93.6275 108.511 93.6275 108.705 93.6275C110.567 93.6275 112.43 93.6217 114.292 93.629C115.846 93.6363 116.776 94.5813 116.778 96.1436C116.781 101.479 116.781 106.814 116.778 112.149C116.778 113.72 115.82 114.675 114.236 114.678C111.072 114.684 107.906 114.683 104.742 114.678C103.151 114.675 102.213 113.742 102.206 112.152C102.199 110.398 102.204 108.643 102.204 106.889C102.204 106.693 102.204 106.496 102.204 106.254H94.4662C94.7677 107.263 95.0561 108.259 95.3765 109.243C95.4054 109.333 95.6373 109.394 95.7779 109.402C96.3359 109.436 96.9041 109.391 97.4534 109.471C98.7259 109.656 99.6086 110.692 99.6448 111.981C99.6579 112.414 99.6579 112.849 99.6448 113.282C99.6216 114.081 99.1331 114.594 98.3374 114.671C98.1766 114.687 98.0129 114.68 97.849 114.68C91.0138 114.68 84.1787 114.68 77.3434 114.68C75.9723 114.68 75.5274 114.238 75.5347 112.862C75.5376 112.394 75.5099 111.911 75.6027 111.459C75.8434 110.297 76.8173 109.508 78.0348 109.417C78.1436 109.408 78.2522 109.411 78.3594 109.411C79.3093 109.404 79.9219 108.94 80.1972 108.018C80.3668 107.449 80.5306 106.878 80.7262 106.209C80.4813 106.209 80.2958 106.209 80.1088 106.209C76.6738 106.209 73.2374 106.209 69.8024 106.209C68.0298 106.209 67.1341 105.315 67.1327 103.541C67.1298 100.395 67.1327 97.2481 67.1327 94.1C67.1327 93.8856 67.1327 93.671 67.1327 93.3971C66.9181 93.3826 66.7472 93.3608 66.5747 93.3595C65.7254 93.3565 64.8716 93.3145 64.0252 93.3667C62.6381 93.4522 61.6888 92.9145 61.2222 91.5839L61.2236 64.3446ZM62.8512 71.8465V72.4857C62.8512 78.544 62.8512 84.6024 62.8512 90.6607C62.8512 91.6188 62.957 91.7289 63.9036 91.7289C74.3723 91.7289 84.8424 91.7289 95.3112 91.7289C96.2112 91.7289 96.3548 91.5854 96.3548 90.6983C96.3548 84.6226 96.3548 78.5454 96.3548 72.4697V71.8465C96.0648 71.8465 95.8504 71.8465 95.6373 71.8465C91.0631 71.8465 86.4874 71.8465 81.9133 71.8465C81.7322 71.8465 81.5495 71.8567 81.3712 71.8349C80.9552 71.7828 80.6611 71.5015 80.6958 71.1218C80.7219 70.8363 80.9568 70.5146 81.1901 70.3218C81.3524 70.1885 81.6727 70.2232 81.922 70.2232C86.5149 70.2189 91.108 70.2203 95.6997 70.2203H96.3533C96.3533 68.5014 96.3533 66.8751 96.3533 65.2504C96.3533 64.4358 96.1779 64.259 95.3706 64.2576C92.5502 64.2561 89.7297 64.2576 86.9077 64.2576C79.2233 64.2576 71.5387 64.2576 63.8543 64.2576C63.0063 64.2576 62.8498 64.4156 62.8498 65.2707C62.8498 66.465 62.8498 67.6578 62.8498 68.8521C62.8498 69.2971 62.8498 69.7421 62.8498 70.2203C63.1368 70.2203 63.3527 70.2203 63.5673 70.2203C68.1415 70.2203 72.717 70.2203 77.2912 70.2232C77.5231 70.2232 77.7666 70.229 77.9855 70.2971C78.3797 70.4218 78.5566 70.729 78.5116 71.1378C78.4652 71.5493 78.2188 71.7885 77.8072 71.8378C77.629 71.8596 77.4463 71.8479 77.2652 71.8479C72.6909 71.8479 68.1154 71.8479 63.5412 71.8479C63.3295 71.8479 63.118 71.8465 62.8512 71.8465ZM68.7965 93.3565V100.425H102.203C102.203 100.192 102.203 99.9975 102.203 99.8033C102.203 98.5554 102.193 97.3089 102.206 96.061C102.22 94.5595 103.149 93.6449 104.655 93.629C105.226 93.6232 105.797 93.629 106.399 93.629C106.41 93.3797 106.426 93.2029 106.426 93.0261C106.426 88.6867 106.428 84.3488 106.426 80.0093C106.426 79.102 106.271 78.9528 105.338 78.9513C103.097 78.9513 100.855 78.9513 98.6143 78.9513C98.4215 78.9513 98.2288 78.9686 97.9824 78.9803C97.9824 79.2339 97.9824 79.447 97.9824 79.66C97.9824 83.3849 97.978 87.1083 97.9852 90.8332C97.9868 91.655 97.762 92.3608 97.0983 92.8913C96.5679 93.316 95.949 93.3638 95.3054 93.3624C86.7194 93.3579 78.1333 93.3595 69.5473 93.3595C69.3154 93.3595 69.082 93.3595 68.798 93.3595L68.7965 93.3565ZM103.831 104.118C103.831 106.759 103.829 109.399 103.831 112.039C103.831 112.842 104.031 113.049 104.807 113.05C107.935 113.053 111.064 113.053 114.192 113.05C114.93 113.05 115.149 112.82 115.149 112.066C115.149 106.785 115.149 101.505 115.149 96.2233C115.149 95.4567 114.953 95.2551 114.194 95.2551C111.066 95.2522 107.937 95.2522 104.809 95.2551C104 95.2551 103.832 95.4276 103.831 96.2508C103.828 98.8728 103.831 101.496 103.831 104.118ZM68.7604 102.115C68.7604 102.566 68.7604 102.96 68.7604 103.356C68.7604 104.457 68.8806 104.58 69.9604 104.58C75.0593 104.58 80.1566 104.58 85.2555 104.58C85.4541 104.58 85.657 104.569 85.8512 104.602C86.257 104.672 86.4861 104.93 86.5106 105.343C86.544 105.867 86.1933 106.195 85.5599 106.204C84.6555 106.217 83.7511 106.193 82.8481 106.22C82.6829 106.224 82.4191 106.357 82.3741 106.489C82.0583 107.427 81.7887 108.381 81.4915 109.368H93.6849C93.4415 108.542 93.1763 107.773 92.998 106.985C92.8604 106.378 92.5994 106.133 91.9429 106.191C91.1356 106.262 90.3168 106.224 89.5036 106.198C88.9529 106.18 88.6383 105.831 88.6615 105.341C88.6833 104.875 88.9905 104.606 89.5384 104.582C89.7008 104.575 89.863 104.579 90.0268 104.579C93.859 104.579 97.6924 104.579 101.525 104.579H102.168V102.114L68.7604 102.115ZM97.9795 113.029C98.1606 111.353 97.8809 111.037 96.2693 111.037C90.392 111.037 84.5149 111.037 78.6391 111.037C78.4233 111.037 78.2015 111.03 77.9913 111.068C77.5594 111.145 77.2506 111.407 77.1912 111.842C77.1391 112.224 77.1811 112.62 77.1811 113.029H97.9795Z" fill="#5D6DFD"/>
<path d="M76.4311 81.8004C76.4311 83.715 76.434 85.631 76.4311 87.5457C76.4283 88.6574 75.9196 89.1718 74.8093 89.1747C72.2265 89.1805 69.6423 89.179 67.0596 89.1747C65.9407 89.1733 65.4218 88.666 65.4204 87.5615C65.4146 83.7135 65.4146 79.864 65.4204 76.016C65.4218 74.9246 65.9262 74.4304 67.0161 74.4289C69.6351 74.426 72.2555 74.4246 74.8746 74.4289C75.9239 74.4304 76.4268 74.9376 76.4297 75.9986C76.4355 77.9321 76.4311 79.8654 76.4311 81.7989V81.8004ZM67.0814 76.0811V87.505H74.7701V76.0811H67.0814Z" fill="#5D6DFD"/>
<path d="M86.3697 80.7926C84.49 80.7926 82.6101 80.7956 80.7302 80.7926C79.4722 80.7897 79.0098 80.3157 79.0084 79.0461C79.0084 78.0156 79.004 76.9851 79.0084 75.9546C79.0143 74.9719 79.5375 74.4328 80.5041 74.4314C84.4261 74.4256 88.3482 74.4269 92.2701 74.4314C93.2455 74.4314 93.7687 74.9661 93.7746 75.946C93.7818 77.0489 93.7818 78.1518 93.7746 79.2533C93.7687 80.252 93.2498 80.7796 92.2222 80.7868C90.27 80.8013 88.3191 80.7911 86.3668 80.7911L86.3697 80.7926ZM80.678 76.0822V79.1171H92.1208V76.0822H80.678Z" fill="#407BFF"/>
<path d="M86.3637 85.3026C84.2318 85.3026 82.1012 85.2982 79.9692 85.3056C79.4721 85.3069 79.1082 85.1331 79.0257 84.6171C78.9517 84.1606 79.1807 83.8446 79.6228 83.7214C79.8097 83.6692 80.0156 83.6764 80.2126 83.6764C84.3318 83.6735 88.4508 83.675 92.5685 83.675C92.6772 83.675 92.7858 83.6706 92.8932 83.6779C93.4396 83.7156 93.7772 84.0374 93.7714 84.5113C93.7642 84.9838 93.4222 85.2982 92.8656 85.2997C90.6974 85.3056 88.5319 85.3026 86.3637 85.3026Z" fill="#407BFF"/>
<path d="M70.505 68.0478C69.1875 68.0478 67.8686 68.0507 66.5511 68.0478C65.8844 68.0464 65.5497 67.7797 65.5409 67.2608C65.5322 66.7406 65.8815 66.4246 66.5148 66.4231C69.1687 66.4188 71.8238 66.4217 74.4777 66.4289C75.1154 66.4304 75.4676 66.7435 75.4633 67.2579C75.4575 67.7754 75.1198 68.0507 74.4602 68.0522C73.1429 68.0565 71.8238 68.0522 70.5065 68.0522V68.0464L70.505 68.0478Z" fill="#407BFF"/>
<path d="M89.6322 87.5479C90.6988 87.5479 91.7641 87.5421 92.8309 87.5508C93.4251 87.5551 93.7773 87.8668 93.7744 88.3581C93.7715 88.8479 93.4194 89.1697 92.8237 89.1726C90.6727 89.1814 88.5234 89.1814 86.3726 89.1726C85.787 89.1697 85.4247 88.835 85.4247 88.3508C85.4247 87.8697 85.79 87.5551 86.3798 87.5508C87.4638 87.5436 88.548 87.5493 89.6322 87.5493V87.5479Z" fill="#407BFF"/>
<path d="M80.8114 87.5531C81.1534 87.5531 81.4969 87.5385 81.839 87.556C82.2998 87.5792 82.5795 87.8285 82.6144 88.2936C82.6491 88.7603 82.4043 89.1024 81.9577 89.1357C81.2055 89.1922 80.4447 89.1922 79.6925 89.1386C79.249 89.1068 78.988 88.7733 79.02 88.3082C79.0504 87.8501 79.3243 87.5849 79.7866 87.5589C80.1273 87.54 80.4708 87.5545 80.8143 87.5545L80.8114 87.5531Z" fill="#407BFF"/>
<path d="M84.7903 68.0483C84.3482 68.0411 84.0076 67.6975 84.0033 67.2556C83.9989 66.8004 84.3786 66.4192 84.8251 66.4308C85.2468 66.4424 85.615 66.8149 85.6208 67.2367C85.6265 67.686 85.2483 68.0556 84.7903 68.0483Z" fill="#407BFF"/>
<path d="M89.6415 67.2726C89.6269 67.7262 89.24 68.0742 88.7776 68.0465C88.3427 68.0219 88.008 67.6553 88.024 67.2204C88.0398 66.7914 88.408 66.4305 88.8298 66.4305C89.2733 66.4305 89.6559 66.8262 89.6415 67.2726Z" fill="#407BFF"/>
<path d="M92.8388 66.4321C93.262 66.422 93.6388 66.7742 93.662 67.2032C93.6867 67.6597 93.3302 68.041 92.8707 68.0496C92.4316 68.0568 92.0677 67.7235 92.0445 67.2917C92.0213 66.8467 92.3938 66.4438 92.8388 66.4336V66.4321Z" fill="#407BFF"/>
<path d="M110.286 110.578C110.297 111.038 109.941 111.412 109.485 111.419C109.038 111.426 108.651 111.046 108.651 110.603C108.651 110.174 108.996 109.822 109.436 109.804C109.913 109.785 110.275 110.114 110.287 110.58L110.286 110.578Z" fill="#407BFF"/>
</g>
</g>
<defs>
<filter id="filter0_b_56_124" x="-40" y="-40" width="258" height="258" filterUnits="userSpaceOnUse" color-interpolation-filters="sRGB">
<feFlood flood-opacity="0" result="BackgroundImageFix"/>
<feGaussianBlur in="BackgroundImageFix" stdDeviation="20"/>
<feComposite in2="SourceAlpha" operator="in" result="effect1_backgroundBlur_56_124"/>
<feBlend mode="normal" in="SourceGraphic" in2="effect1_backgroundBlur_56_124" result="shape"/>
</filter>
<clipPath id="clip0_56_124">
<rect width="100" height="100" fill="white" transform="translate(39 39)"/>
</clipPath>
</defs>
</svg>
