<svg width="100" height="100" viewBox="0 0 100 100" fill="none" xmlns="http://www.w3.org/2000/svg">
<g clip-path="url(#clip0_16_347)">
<mask id="mask0_16_347" style="mask-type:luminance" maskUnits="userSpaceOnUse" x="22" y="23" width="56" height="54">
<path d="M77.7778 23.6111H22.2222V76.573H77.7778V23.6111Z" fill="white"/>
</mask>
<g mask="url(#mask0_16_347)">
<path d="M42.2758 68.0198C41.9753 68.0198 41.7477 68.0198 41.5202 68.0198C37.2393 68.0198 32.9577 68.0179 28.677 68.0198C26.255 68.0208 24.3443 67.0804 23.0645 64.9809C22.4545 63.9827 22.2268 62.8776 22.2268 61.7205C22.2258 51.1136 22.2139 40.5056 22.2329 29.8985C22.2399 26.1969 24.8714 23.6142 28.5621 23.6133C40.364 23.6104 52.165 23.6104 63.967 23.6133C67.7385 23.6133 70.3331 26.1999 70.3351 29.9665C70.3401 38.8384 70.3371 47.7094 70.3371 56.5812C70.3371 56.8119 70.3371 57.0415 70.3371 57.3399C70.5697 57.3519 70.7724 57.3699 70.976 57.3709C72.7889 57.3729 74.6018 57.3679 76.4138 57.374C77.3981 57.3769 77.7745 57.7513 77.7754 58.7426C77.7795 64.2202 77.7795 69.697 77.7754 75.1747C77.7754 76.189 77.3931 76.5723 76.3738 76.5723C65.4783 76.5752 54.5829 76.5752 43.6883 76.5723C42.6422 76.5723 42.2808 76.194 42.2788 75.1247C42.2747 72.9844 42.2778 70.843 42.2778 68.7026C42.2778 68.496 42.2778 68.2884 42.2778 68.0208L42.2758 68.0198ZM24.4731 37.0415C24.4731 37.2961 24.4731 37.4867 24.4731 37.6774C24.4731 45.6629 24.4711 53.6473 24.474 61.6327C24.475 64.2033 26.0474 65.7626 28.626 65.7637C32.9457 65.7656 37.2663 65.7637 41.586 65.7637H42.2747C42.2747 65.4751 42.2747 65.2486 42.2747 65.0219C42.2747 60.5855 42.2728 56.1499 42.2768 51.7135C42.2768 50.6833 42.6442 50.3188 43.6635 50.3119C44.3922 50.3069 45.12 50.3109 45.9146 50.3109C45.9146 49.0799 45.9056 47.909 45.9177 46.739C45.9256 45.9174 46.3539 45.4922 47.1735 45.4872C48.4653 45.4781 49.7581 45.4841 51.0499 45.4841C51.545 45.4841 52.0392 45.4841 52.5903 45.4841C52.5903 44.4719 52.5953 43.5305 52.5882 42.5901C52.5853 42.1338 52.72 41.7565 53.1283 41.5119C53.9 41.0506 54.7895 41.5887 54.8095 42.5481C54.8295 43.5065 54.8135 44.4659 54.8135 45.4831C55.0781 45.4831 55.2847 45.4831 55.4914 45.4831C57.1495 45.4831 58.8088 45.4772 60.4668 45.486C61.2606 45.4901 61.6847 45.8965 61.7157 46.6881C61.7388 47.2851 61.7217 47.8841 61.7228 48.482C61.7228 49.073 61.7228 49.663 61.7228 50.3109C62.5543 50.3109 63.3031 50.304 64.0508 50.3129C64.9682 50.3238 65.3546 50.7092 65.3575 51.6187C65.3635 53.3158 65.3575 55.0129 65.3606 56.7111C65.3606 56.9147 65.3775 57.1183 65.3865 57.329H68.077V37.0415H24.4731ZM68.021 34.7354C68.055 34.6895 68.0979 34.6585 68.0979 34.6276C68.0958 32.8347 68.0949 31.0427 68.0779 29.2497C68.076 29.0241 68.0011 28.7935 67.9342 28.5738C67.404 26.8329 65.9375 25.8326 63.906 25.8326C52.164 25.8305 40.422 25.8326 28.6789 25.8326C28.5631 25.8326 28.4474 25.8326 28.3315 25.8355C26.0853 25.9134 24.5031 27.5156 24.475 29.7569C24.4611 30.9138 24.4721 32.0709 24.4721 33.228C24.4721 33.7222 24.4721 34.2173 24.4721 34.7354H68.021ZM48.5382 74.3072C48.5382 74.0306 48.5382 73.8209 48.5382 73.6123C48.5382 71.5479 48.5352 69.4844 48.5392 67.4198C48.5411 66.4016 48.9135 66.0292 49.9407 66.0272C52.5254 66.0222 55.11 66.0222 57.6946 66.0272C58.7399 66.0292 59.1022 66.4095 59.1032 67.4767C59.1051 69.5412 59.1032 71.6047 59.1032 73.6692V74.2951H63.1074V52.581H44.5499V74.3072H48.5382ZM65.3925 74.2862H75.5043V59.6301H65.3925V74.2862ZM59.4436 47.7452H48.1458C48.1458 48.4222 48.1828 49.058 48.1349 49.687C48.0939 50.2201 48.2996 50.3229 48.7907 50.3199C52.144 50.2999 55.4974 50.309 58.8517 50.309H59.4436V47.7452ZM56.852 68.3142H54.8535V74.2912H56.852V68.3142ZM50.7933 74.2852H52.5553V68.2983H50.7933V74.2852Z" fill="#5D6DFD"/>
<path d="M34.374 42.2258C35.9164 42.2258 37.4597 42.2219 39.0021 42.2269C39.9395 42.2298 40.3358 42.6262 40.3389 43.5686C40.3449 45.3426 40.3449 47.1176 40.3389 48.8915C40.3358 49.8159 39.9165 50.2302 38.9892 50.2312C35.9233 50.2352 32.8565 50.2343 29.7907 50.2312C28.8295 50.2312 28.4331 49.8259 28.4311 48.8486C28.4281 47.0936 28.4281 45.3386 28.4311 43.5836C28.4331 42.6052 28.8145 42.2279 29.8038 42.2258C31.3271 42.2219 32.8506 42.2258 34.374 42.2258ZM30.6853 47.967H38.0697V44.4751H30.6853V47.967Z" fill="#5D6DFD"/>
<path d="M34.4021 57.084C35.9445 57.084 37.487 57.077 39.0294 57.087C39.7331 57.0909 40.1534 57.3965 40.2981 57.9605C40.4399 58.5166 40.1014 59.1136 39.5295 59.2633C39.2909 59.3252 39.0343 59.3362 38.7857 59.3362C35.8548 59.3412 32.9246 59.3391 29.9937 59.3391C29.8969 59.3391 29.801 59.3422 29.7042 59.3372C28.9205 59.3002 28.4303 58.8609 28.4344 58.2041C28.4382 57.5502 28.9405 57.094 29.7171 57.088C31.2785 57.0761 32.8409 57.084 34.4021 57.084Z" fill="#5D6DFD"/>
<path d="M32.5363 54.768C31.5739 54.768 30.6115 54.7761 29.6502 54.7661C28.9154 54.758 28.4343 54.3108 28.4343 53.6638C28.4343 53.0209 28.9235 52.5558 29.6502 52.5527C31.5749 52.5438 33.4986 52.5429 35.4234 52.5538C36.1292 52.5577 36.6343 53.0619 36.6143 53.6929C36.5954 54.3168 36.1242 54.7561 35.4234 54.7651C34.461 54.778 33.4977 54.768 32.5363 54.768Z" fill="#5D6DFD"/>
<path d="M53.8108 57.6028C51.924 57.6028 50.0362 57.6028 48.1494 57.6018C47.9379 57.6018 47.7242 57.6037 47.5165 57.5728C46.9176 57.485 46.5172 57.0478 46.5062 56.4916C46.4953 55.9266 46.9256 55.4494 47.5385 55.3646C47.7093 55.3407 47.8839 55.3476 48.0576 55.3476C51.8892 55.3476 55.7217 55.3476 59.5531 55.3476C60.5843 55.3476 61.1204 55.725 61.1324 56.4578C61.1454 57.2135 60.6033 57.6018 59.5301 57.6028C57.6233 57.6037 55.7176 57.6028 53.8108 57.6028Z" fill="#5D6DFD"/>
<path d="M53.8577 61.0774C55.8982 61.0774 57.9397 61.0684 59.9802 61.0824C60.675 61.0874 61.1372 61.5586 61.1322 62.1876C61.1272 62.7876 60.675 63.2437 60.0242 63.2987C59.8904 63.3097 59.7546 63.3037 59.6199 63.3037C58.946 63.3037 58.2721 63.3037 57.5982 63.3037C54.4406 63.3037 51.2829 63.3037 48.1254 63.3037C47.9717 63.3037 47.8168 63.3097 47.6632 63.2997C46.9883 63.2568 46.5021 62.7815 46.5061 62.1726C46.509 61.5536 46.9833 61.0854 47.6771 61.0804C49.7377 61.0674 51.7971 61.0763 53.8577 61.0774Z" fill="#5D6DFD"/>
<path d="M70.3626 64.5466C69.5529 64.5466 68.7433 64.5566 67.9337 64.5437C67.0872 64.5306 66.609 64.1153 66.6069 63.4235C66.605 62.7287 67.0911 62.2995 67.9247 62.2955C69.5629 62.2864 71.2012 62.2855 72.8394 62.2955C73.6431 62.3005 74.1253 62.7187 74.1442 63.3846C74.1642 64.0684 73.6681 64.5256 72.8483 64.5427C72.0199 64.5596 71.1922 64.5466 70.3626 64.5466Z" fill="#5D6DFD"/>
<path d="M70.364 69.6277C69.5545 69.6277 68.7447 69.6387 67.9361 69.6248C67.0867 69.6108 66.6124 69.1974 66.6124 68.5047C66.6124 67.8098 67.0996 67.3845 67.9342 67.3816C69.5724 67.3747 71.2106 67.3736 72.8488 67.3816C73.6415 67.3856 74.1336 67.8119 74.1506 68.4727C74.1686 69.1576 73.6774 69.6067 72.8508 69.6238C72.0222 69.6408 71.1926 69.6277 70.364 69.6277Z" fill="#5D6DFD"/>
<path d="M29.9827 31.832C30.8378 31.832 31.531 31.1388 31.531 30.2837C31.531 29.4285 30.8378 28.7354 29.9827 28.7354C29.1275 28.7354 28.4343 29.4285 28.4343 30.2837C28.4343 31.1388 29.1275 31.832 29.9827 31.832Z" fill="#5D6DFD"/>
<path d="M34.3771 31.832C35.2322 31.832 35.9255 31.1388 35.9255 30.2837C35.9255 29.4285 35.2322 28.7354 34.3771 28.7354C33.5219 28.7354 32.8287 29.4285 32.8287 30.2837C32.8287 31.1388 33.5219 31.832 34.3771 31.832Z" fill="#5D6DFD"/>
<path d="M38.7717 31.832C39.6268 31.832 40.32 31.1388 40.32 30.2837C40.32 29.4285 39.6268 28.7354 38.7717 28.7354C37.9165 28.7354 37.2233 29.4285 37.2233 30.2837C37.2233 31.1388 37.9165 31.832 38.7717 31.832Z" fill="#5D6DFD"/>
</g>
</g>
<defs>
<clipPath id="clip0_16_347">
<rect width="100" height="100" fill="white"/>
</clipPath>
</defs>
</svg>
