<svg width="1340" height="447" viewBox="0 0 1340 447" fill="none" xmlns="http://www.w3.org/2000/svg">
<g filter="url(#filter0_b_16_385)">
<rect width="1340" height="447" rx="25" fill="#1A2D47" fill-opacity="0.3"/>
</g>
<g clip-path="url(#clip0_16_385)">
<path d="M1477.21 367.454C1473.33 392.449 1456.24 410.827 1439.45 408.377C1425.89 406.416 1414.27 392.938 1402.98 381.667C1391.52 370.15 1377.81 360.102 1364.73 365.494C1356.34 368.924 1349.57 378.236 1343.76 387.793C1335.2 401.76 1327.46 417.198 1321.01 433.617C1317.46 442.684 1314.07 452.24 1308.9 459.347C1303.74 466.453 1296.16 470.62 1289.71 466.698C1283.09 462.777 1279.69 451.995 1274.69 444.399C1266.63 432.147 1254.36 428.471 1243.23 431.656C1232.09 434.843 1222.26 444.399 1213.7 455.916C1199.5 475.274 1188.37 503.701 1192.4 532.126C1195.79 555.897 1209.34 573.785 1215.79 596.574C1222.41 620.59 1220.32 649.506 1210.31 670.579C1201.11 690.183 1185.94 702.681 1179.17 724.49C1174.97 737.968 1174.64 753.652 1175.29 768.599C1177.07 818.589 1189.49 867.109 1209.82 906.072" stroke="#E03F3F" stroke-opacity="0.3" stroke-width="1.08333" stroke-miterlimit="10"/>
<path d="M1478.98 410.092C1476.4 425.53 1465.75 436.802 1453.33 437.291C1450.74 437.291 1448.16 437.047 1445.59 436.067C1435.25 432.637 1425.57 423.079 1415.89 414.503C1413.63 412.542 1411.38 410.581 1409.27 408.866C1397.65 399.31 1384.1 392.204 1370.87 398.084C1362.48 402.005 1355.38 410.336 1349.25 418.422C1340.54 429.941 1333.27 442.682 1326.81 456.16C1324.24 461.551 1321.81 467.188 1318.75 472.09C1317.62 473.805 1316.33 475.52 1315.04 476.99C1310.04 482.626 1302.93 486.057 1296.8 482.381C1290.51 478.705 1286.95 469.149 1282.12 463.023C1280.98 461.551 1279.7 460.082 1278.24 458.856C1270.82 452.486 1261.47 451.506 1253.07 454.936C1243.23 459.101 1234.35 468.903 1226.61 479.931C1213.86 498.065 1203.37 523.794 1206.11 549.034C1208.53 570.844 1219.67 586.772 1224.52 607.356C1229.67 628.675 1227.09 654.896 1217.73 673.764C1208.53 692.388 1194.49 705.622 1188.37 726.941C1184.66 740.173 1184.34 755.366 1185.14 769.824C1185.46 774.969 1185.78 780.117 1186.26 785.262C1190.63 827.902 1203.05 868.333 1221.12 901.66" stroke="#E03F3F" stroke-opacity="0.3" stroke-width="1.08333" stroke-miterlimit="10"/>
<path d="M1480.75 452.73C1478.83 462.777 1470.1 469.392 1458.81 466.697C1456.56 466.207 1454.13 465.227 1451.71 464.001C1442.03 458.856 1432.51 448.563 1422.5 440.967C1420.24 439.252 1417.99 437.537 1415.73 436.065C1403.79 428.224 1390.4 424.303 1377.32 430.92C1368.93 435.085 1361.51 442.682 1355.05 449.543C1346.34 458.61 1339.4 468.903 1333.11 479.194C1330.52 483.361 1328.11 487.772 1325.04 491.448C1323.92 492.917 1322.78 494.143 1321.49 495.367C1316.65 499.778 1310.04 502.23 1304.22 498.799C1298.25 495.367 1294.54 487.281 1289.71 482.381C1288.57 481.155 1287.28 480.174 1286 479.194C1278.89 474.294 1270.66 474.783 1263.24 479.194C1254.53 484.341 1246.94 494.387 1239.68 505.169C1228.38 522.079 1218.55 544.868 1219.99 567.412C1221.29 586.527 1230.16 600.739 1233.55 618.873C1237.09 637.742 1234.2 660.776 1225.32 677.684C1216.12 694.594 1203.21 708.315 1197.73 729.39C1194.34 742.377 1194.17 757.081 1195.14 771.048C1195.46 775.95 1195.95 780.851 1196.43 785.751C1201.28 826.919 1214.35 865.148 1232.09 897.249" stroke="#E03F3F" stroke-opacity="0.3" stroke-width="1.08333" stroke-miterlimit="10"/>
<path d="M1431.21 9.68139C1428.96 29.0403 1424.6 47.664 1417.5 63.8373C1410.41 80.0105 1400.24 93.4883 1388.14 100.595C1376.67 106.966 1363.93 107.946 1351.82 105.006C1341.82 102.555 1332.14 97.6541 1323.59 89.5675C1318.59 84.9116 1314.07 79.0303 1308.9 74.3744C1308.1 73.6393 1307.3 72.9041 1306.65 72.4141C1288.89 57.466 1270.33 57.221 1254.68 37.372C1243.39 23.1591 1241.29 -1.1008 1238.55 -22.175C1235.8 -43.2494 1228.71 -67.9993 1214.18 -71.675C1208.05 -73.3904 1201.93 -70.6949 1195.79 -69.7147C1167.87 -65.5488 1144.15 -99.3657 1127.37 -132.447C1123.18 -140.534 1118.5 -148.375 1112.52 -154.747C1106.72 -160.873 1099.78 -164.794 1093.81 -170.185C1084.77 -178.272 1077.83 -189.789 1073.15 -203.512C1070.89 -210.373 1069.12 -217.725 1066.54 -224.831C1063.31 -233.652 1059.44 -240.759 1056.05 -248.356C1051.37 -258.893 1047.66 -270.901 1044.75 -283.398C1039.43 -305.943 1035.88 -330.692 1035.72 -354.952C1035.55 -406.413 1049.43 -454.687 1059.11 -504.433C1063.15 -525.506 1066.54 -546.827 1067.99 -568.635C1072.02 -630.632 1060.56 -692.384 1048.95 -752.177" stroke="#E03F3F" stroke-opacity="0.3" stroke-width="1.08333" stroke-miterlimit="10"/>
<path d="M329.586 813.687C342.495 796.044 352.662 773.254 359.922 749.24C361.375 744.34 362.827 739.192 364.118 734.047C369.121 714.689 372.671 693.614 372.509 672.784C372.509 669.108 372.348 665.188 372.025 661.513C371.057 648.524 368.313 636.027 364.279 624.264C363.956 623.284 363.473 622.304 363.15 621.079C355.243 600.25 343.463 582.116 335.556 563.002C330.555 551.241 327.811 539.722 322.971 530.657C314.741 515.218 302.315 505.416 288.439 501.006C283.597 499.534 278.434 499.045 273.27 499.534C264.234 500.269 254.068 503.456 245.516 496.349C236.156 488.507 232.929 470.129 234.059 454.445C235.188 439.008 239.384 424.794 241.32 409.357C241.643 406.905 241.804 404.701 241.966 402.249C242.934 388.771 241.804 374.315 237.286 362.796C235.027 357.161 232.123 352.26 228.572 348.584C215.824 335.597 197.914 339.762 182.423 338.782C175.161 338.293 168.222 336.577 162.413 330.695C159.508 327.754 157.087 324.08 154.99 319.913C150.311 310.111 148.212 297.368 147.244 285.117C146.115 271.884 146.115 258.65 144.017 246.399C143.372 242.477 142.566 238.801 141.436 235.127C132.561 204.005 107.388 189.792 82.699 179.745C67.8535 173.619 54.299 166.267 40.2603 160.141C29.2875 155.485 17.992 151.564 6.53514 146.908C-5.72854 142.007 -18.4762 136.126 -30.2559 128.775C-43.4877 120.443 -55.7513 109.906 -63.4968 92.0175" stroke="#E03F3F" stroke-opacity="0.3" stroke-width="1.08333" stroke-miterlimit="10"/>
<path d="M410.591 875.441C432.051 851.672 445.929 814.424 453.513 775.706C455.127 767.619 456.417 759.533 457.547 751.446C461.743 720.325 463.033 688.224 462.873 656.122C462.873 650.487 462.873 644.604 462.55 638.968C461.904 618.875 459.968 599.026 454.32 581.137C453.836 579.422 453.352 577.951 452.707 576.236C441.411 544.134 419.949 518.649 415.27 484.343C412.365 463.023 417.206 442.93 418.498 423.08C419.949 402.005 417.045 378.726 405.911 362.798C402.039 357.162 397.197 352.996 392.034 349.81C382.513 343.929 371.54 340.743 362.342 331.432C352.66 321.63 346.851 305.457 343.624 289.284C340.397 273.354 339.429 256.937 337.976 240.029C337.816 237.333 337.493 234.882 337.331 232.186C335.878 217.728 333.781 202.535 327.972 190.773C325.067 184.892 321.517 180.481 317.322 177.051C302.96 165.288 283.597 168.964 266.977 172.149C259.231 173.619 251.486 174.845 244.385 172.64C240.673 171.66 237.286 169.699 233.897 167.003C226.152 160.632 220.826 149.605 215.986 138.333C210.821 126.325 205.981 113.828 199.203 105.251C196.944 102.555 194.685 100.105 192.265 98.1446C171.772 81.7262 142.887 95.4491 116.424 83.4416C98.1894 75.1099 85.2803 53.7906 71.0802 36.6371C59.9461 23.4045 47.3596 12.1321 33.9664 2.82027C19.605 -6.98171 3.9527 -14.8233 -11.5383 -19.9694C-28.8042 -25.8505 -46.7157 -29.0362 -59.9475 -46.1896" stroke="#E03F3F" stroke-opacity="0.3" stroke-width="1.08333" stroke-miterlimit="10"/>
<path d="M352.662 -683.074C345.078 -650.973 340.076 -611.765 353.791 -584.319C358.471 -575.252 364.603 -568.391 371.381 -563C372.671 -562.02 373.962 -561.039 375.253 -560.059C394.294 -545.846 415.272 -537.514 436.41 -535.555C443.833 -534.819 451.417 -534.819 458.517 -531.634C479.816 -522.076 491.112 -481.644 483.367 -453.952C480.301 -442.926 474.976 -434.103 470.135 -424.792C467.876 -420.625 465.778 -416.215 463.842 -411.56C456.258 -394.406 450.287 -374.312 449.158 -352.012C447.867 -324.322 456.258 -299.571 462.389 -274.087C470.135 -241.495 467.714 -204.983 472.394 -169.45C477.235 -133.183 484.819 -99.3664 487.723 -62.8539C489.338 -41.2896 492.888 -19.9702 489.821 0.12378C488.531 8.70051 485.464 16.0519 481.592 22.9133C473.685 37.1262 461.421 47.9084 448.028 44.7227C419.467 38.3514 391.712 25.1189 366.378 9.92577C357.503 4.77973 348.951 -0.856464 340.559 -6.24756C318.614 -20.2154 297.96 -39.0842 274.4 -55.2574C251.81 -70.6955 228.574 -86.6236 205.337 -99.3664C195.493 -104.757 185.489 -109.658 175.645 -113.824C162.575 -119.46 148.052 -120.931 135.628 -131.958C115.78 -149.356 107.711 -177.291 88.9931 -196.406C73.3409 -212.333 54.9452 -219.196 43.327 -244.926C41.8748 -248.112 40.5839 -251.297 39.4543 -254.727C32.5157 -274.576 29.7724 -297.611 27.8361 -319.175C26.5452 -333.879 25.4156 -349.806 19.1224 -361.569C13.636 -371.862 5.56786 -377.253 -1.20943 -385.339C-7.98672 -393.18 -13.7957 -406.904 -10.5685 -419.156" stroke="#E03F3F" stroke-opacity="0.3" stroke-width="1.08333" stroke-miterlimit="10"/>
<path d="M948.094 -602.697C964.23 -579.908 965.36 -540.945 959.874 -508.109C954.387 -475.271 943.738 -444.64 940.026 -411.804C938.251 -395.876 937.283 -377.497 934.056 -362.058C931.151 -347.846 926.311 -336.083 917.274 -330.448C911.303 -326.772 904.364 -326.772 898.394 -322.851C882.257 -311.579 882.257 -280.213 880.321 -252.277C879.998 -248.601 879.838 -244.926 879.353 -241.25C876.126 -210.618 864.024 -182.682 861.926 -151.806C859.99 -124.361 864.992 -97.8957 869.187 -71.1853C870.963 -60.1581 872.737 -48.6407 873.705 -37.1235C874.673 -25.116 874.673 -13.5987 873.382 -2.57148C872.576 4.53496 871.285 11.3963 869.833 17.7675C863.701 46.9284 852.566 74.129 841.271 102.064C834.816 117.993 828.2 133.921 822.714 151.564C818.357 165.532 814.807 179.99 812.709 195.183C811.096 205.72 811.096 216.502 811.58 227.04C812.065 238.803 813.356 250.564 813.839 262.326C814.162 272.128 814.162 280.706 812.388 289.527C811.418 294.184 809.644 297.859 808.353 302.025C807.223 305.701 806.255 309.622 806.417 314.768C807.223 331.186 811.741 347.114 816.26 362.307C823.844 388.037 831.266 413.768 838.69 439.497C842.24 451.995 845.951 464.492 849.501 476.99C855.149 496.349 860.635 515.708 866.283 535.067C869.187 545.113 872.253 555.895 871.769 566.677C871.446 574.275 869.672 581.136 867.412 587.998C865.476 594.124 863.378 600.004 861.765 606.376C861.603 606.867 861.441 607.602 861.441 608.091C859.99 614.219 859.182 620.588 858.376 626.716C856.923 638.478 856.117 650.239 852.405 660.041C845.627 678.175 830.783 686.507 816.583 687.733C802.543 688.714 788.343 685.281 774.144 690.429C772.691 690.918 771.078 691.653 769.625 692.388C766.237 694.348 763.171 696.8 760.75 699.496C759.137 701.211 757.685 702.926 756.393 704.887C753.812 708.561 751.069 712.728 748.487 717.384C739.773 733.066 732.996 752.916 727.187 775.215C718.473 808.787 711.373 846.525 708.468 882.056" stroke="#E03F3F" stroke-opacity="0.3" stroke-width="1.08333" stroke-miterlimit="10"/>
<path d="M894.523 -594.61C906.626 -572.311 907.594 -538.738 903.075 -509.824C898.395 -480.908 889.197 -453.461 883.711 -425.771C880.968 -412.293 878.548 -397.591 874.514 -385.092C870.964 -373.821 865.961 -364.508 858.215 -359.117C852.891 -355.441 847.081 -354.706 841.918 -350.787C827.718 -340.248 824.652 -316.234 821.102 -292.465C820.618 -289.278 820.134 -286.094 819.65 -283.152C815.454 -256.686 806.902 -231.202 804.966 -203.756C803.029 -174.841 805.611 -146.17 807.87 -117.499C808.677 -106.227 810.613 -93.4841 811.259 -80.9866C811.904 -67.999 811.259 -55.5015 807.87 -45.4545C805.611 -38.8382 802.707 -34.4273 799.802 -30.0164C788.023 -11.3926 770.273 4.53562 754.297 25.8549C744.938 38.1074 736.225 52.5652 729.931 71.434C725.091 86.1371 722.186 102.065 721.056 118.238C720.249 129.511 720.896 141.028 722.347 152.055C723.8 164.308 726.059 176.314 727.995 188.077C729.448 197.879 730.9 206.702 730.9 215.523C730.9 220.424 730.416 224.345 730.254 228.756C730.093 232.677 730.092 236.842 730.9 241.988C733.643 258.652 738.806 275.069 743.809 290.999C752.199 317.954 760.268 345.399 768.336 372.6C772.209 385.832 776.082 399.064 780.116 412.298C786.247 432.882 792.218 453.221 798.349 473.805C801.578 484.587 804.643 495.615 805.611 506.642C806.256 514.483 805.934 521.835 805.288 529.187C804.805 535.802 804.159 542.419 803.029 549.526C802.868 550.015 802.868 550.751 802.707 551.241C801.578 557.858 799.963 564.473 798.349 570.599C795.122 582.853 791.895 593.144 786.732 600.987C777.212 615.445 761.559 619.364 746.39 615.688C727.672 611.032 709.277 601.476 689.752 612.012C687.815 612.993 685.879 614.464 684.104 616.179C679.909 620.345 677.004 625.981 676.359 631.616C675.874 635.292 676.359 637.988 676.52 641.42C676.681 647.546 676.036 654.897 675.229 662.493C672.97 688.468 672.002 717.874 668.29 749.241C662.481 797.27 649.734 846.279 639.406 892.595" stroke="#E03F3F" stroke-opacity="0.3" stroke-width="1.08333" stroke-miterlimit="10"/>
<path d="M805.126 -581.134C810.773 -559.813 811.258 -535.31 808.03 -512.519C804.803 -489.729 798.026 -467.921 789.473 -448.807C785.116 -439.25 780.276 -430.427 774.628 -422.832C769.948 -416.46 764.785 -411.069 758.976 -406.413C754.941 -403.228 750.907 -400.532 746.873 -397.102C736.062 -388.035 727.509 -375.781 721.539 -359.608C720.732 -357.404 719.925 -355.197 719.28 -352.747C713.309 -333.387 710.727 -311.579 709.437 -290.015C707.5 -258.158 706.21 -226.302 704.919 -194.69C704.434 -183.417 706.21 -168.47 706.37 -154.012C706.532 -139.309 704.919 -125.587 697.98 -117.01C693.623 -111.619 687.814 -110.638 682.327 -109.903C661.996 -107.453 632.466 -111.864 608.261 -101.082C594.061 -94.9553 581.798 -83.438 574.214 -61.8736C568.566 -45.9455 566.791 -27.8117 567.436 -9.67806C567.921 2.81947 569.857 15.3169 572.438 26.8342C575.505 39.8219 579.377 52.3193 583.734 64.3269C587.123 73.8837 590.673 83.1957 594.062 92.5075C595.836 97.4084 597.45 102.31 599.225 107.21C600.839 111.621 602.29 116.277 604.066 120.933C610.036 137.842 616.33 155.24 622.139 172.639C631.982 201.8 641.018 231.695 650.216 261.346C654.573 275.804 659.091 290.262 663.448 304.475C670.225 326.774 677.164 349.319 683.942 371.62C687.491 383.38 691.041 395.143 694.268 406.662C696.527 414.992 698.625 423.079 700.562 431.165C702.337 438.517 704.273 446.358 703.789 454.445C703.789 455.181 703.628 455.916 703.628 456.406C702.821 463.757 700.239 470.618 697.173 476.5C690.718 489.243 683.78 497.084 676.357 501.741C661.995 510.071 645.375 505.416 628.594 495.369C602.29 479.441 576.473 461.307 548.234 481.157C545.491 483.116 542.909 485.811 540.811 489.243C535.486 497.084 532.582 508.356 534.84 518.158C536.293 524.775 539.682 529.431 542.425 535.068C547.427 545.359 550.009 558.102 552.43 570.599C560.982 613.973 569.857 658.572 569.534 705.131C569.05 777.421 546.298 845.299 523.706 909.012" stroke="#E03F3F" stroke-opacity="0.3" stroke-width="1.08333" stroke-miterlimit="10"/>
<path d="M658.446 398.819C646.344 339.027 614.072 293.449 598.419 235.862C594.063 219.689 590.996 203.024 587.447 186.362C583.25 166.758 578.41 147.154 572.924 128.285C570.826 120.933 568.082 113.092 562.919 110.886C557.594 108.681 552.108 114.072 549.041 120.933C545.976 127.795 544.524 136.127 542.103 143.478C534.841 166.023 517.899 180.481 501.439 178.03C488.207 176.069 475.46 166.268 461.905 167.003C453.514 167.493 448.996 175.825 451.417 188.568C452.546 194.448 454.966 199.594 457.548 204.496C468.359 225.815 481.753 245.174 489.015 269.924C497.082 297.368 494.178 327.019 494.178 356.181C491.919 369.904 489.66 384.606 493.21 397.595C497.728 414.012 510.153 421.609 521.771 423.079C533.39 424.305 545.007 420.874 556.626 422.835C578.894 426.265 598.258 448.319 620.203 454.201C648.119 461.797 667.644 444.643 658.446 398.819Z" stroke="#E03F3F" stroke-opacity="0.3" stroke-width="1.08333" stroke-miterlimit="10"/>
<path d="M608.746 378.97C609.392 389.262 607.778 396.614 603.744 400.78C599.549 405.19 593.417 406.171 586.478 403.964C575.343 400.29 565.5 389.017 555.335 384.117C549.687 381.421 544.361 379.95 539.037 376.765C533.712 373.579 528.064 367.944 525.321 359.12C524.998 357.896 524.675 356.67 524.353 355.445C523.224 349.319 523.224 343.193 523.224 337.312C521.287 322.119 520.318 306.925 515.639 292.223C513.541 285.851 511.122 279.971 508.701 274.089C505.957 267.472 503.376 260.857 501.117 253.994C500.148 251.055 499.18 248.114 498.858 244.683C498.535 242.723 498.535 241.007 498.696 239.292C499.18 235.125 500.794 232.186 503.698 231.206C507.571 229.734 511.766 230.715 515.8 231.695C518.544 232.43 521.287 232.921 524.03 232.921C532.582 233.166 541.296 226.795 546.299 216.993C547.912 213.807 549.041 209.887 550.977 207.191C553.883 203.27 557.916 201.309 561.467 202.535C565.178 203.759 567.759 207.926 569.535 212.826C571.148 217.482 572.601 222.874 573.569 228.756C575.021 237.577 576.151 245.908 577.281 254.24C578.894 265.513 580.669 276.784 584.218 289.282C593.255 319.913 606.971 348.584 608.746 378.97Z" stroke="#E03F3F" stroke-opacity="0.3" stroke-width="1.08333" stroke-miterlimit="10"/>
<path d="M1090.74 635.536C1075.73 662.982 1058.95 688.957 1038.62 707.091C1021.68 722.284 1001.99 731.595 982.627 730.125C978.754 729.88 974.881 729.145 971.17 727.919C948.256 720.569 927.763 694.103 922.277 660.041C915.661 618.382 930.022 579.42 938.897 539.722C943.899 517.912 946.481 494.387 946.965 471.108C947.288 454.199 946.32 437.291 944.222 420.873C937.768 372.109 916.145 333.145 913.402 281.685C911.788 252.034 915.5 182.195 922.76 106.965C927.925 53.7889 934.541 -1.83723 942.77 -47.9065C952.774 -103.043 964.555 -143.966 976.979 -146.171C989.889 -148.377 998.602 -127.793 1004.41 -110.884C1012 -89.0749 1017.64 -64.8149 1025.87 -42.0254C1028.45 -34.9189 1031.2 -28.0575 1034.26 -21.4412C1049.43 10.4152 1071.86 33.2049 1094.29 53.0539C1108.65 65.7964 1123.82 76.0884 1139.63 82.7049C1144.15 84.6652 1148.83 86.3806 1153.51 87.6058C1165.29 90.7915 1178.2 92.0167 1186.91 104.024C1193.37 112.846 1195.46 126.324 1199.17 137.841C1206.93 162.591 1221.77 182.195 1238.06 189.792C1246.79 193.957 1255.5 194.938 1263.88 198.614C1278.24 204.74 1298.25 220.913 1307.45 239.291C1316.01 256.69 1309.07 292.712 1303.25 312.07C1302.13 315.746 1301 319.422 1298.9 322.118C1293.57 328.735 1285.51 325.794 1278.41 325.548C1262.76 325.059 1251.94 339.026 1239.2 349.808C1236.77 351.769 1234.2 353.729 1231.61 355.69C1219.67 364.022 1207.08 370.638 1195.95 381.911C1176.75 401.269 1161.58 427.979 1148.83 456.649C1142.37 471.353 1136.57 486.546 1131.24 501.739C1128.01 511.051 1125.27 520.608 1122.69 530.41C1113.01 567.167 1106.72 606.13 1090.74 635.536Z" stroke="#E03F3F" stroke-opacity="0.3" stroke-width="1.08333" stroke-miterlimit="10"/>
<path d="M1153.99 276.541C1141.57 277.275 1128.83 273.845 1116.88 278.991C1101.07 285.851 1089.61 306.681 1079.77 326.776C1074.6 337.067 1069.6 347.605 1066.7 359.611C1062.66 376.276 1063.15 394.654 1061.85 412.298C1060.56 429.941 1056.53 448.81 1046.69 458.366C1040.39 464.492 1032.33 465.964 1025.39 462.042C1008.12 452.731 1003.44 418.179 1006.99 390.734C1010.54 363.287 1019.26 337.067 1018.13 309.131C1017.32 289.038 1011.19 270.415 1006.83 251.3C1002.8 234.147 1000.21 216.258 998.923 198.124C997.955 184.892 997.955 170.679 1002.96 159.897C1011.51 141.273 1030.23 142.253 1043.62 151.81C1057.01 161.367 1068.47 177.54 1082.67 184.401C1096.39 191.018 1111.07 188.322 1125.27 186.116C1139.48 183.912 1154.48 182.686 1167.55 191.507C1202.4 215.523 1188.69 274.334 1153.99 276.541Z" stroke="#E03F3F" stroke-opacity="0.3" stroke-width="1.08333" stroke-miterlimit="10"/>
<path d="M4.11483 -275.557C8.31029 -223.605 27.1899 -174.841 54.9445 -143.474C63.8196 -133.427 73.6628 -125.341 82.2151 -114.804C100.933 -92.2591 114.004 -59.1774 134.982 -41.7789C170.482 -12.1279 215.179 -35.6526 254.553 -21.4397C273.593 -14.5784 290.698 1.10474 306.995 17.7681C313.934 24.8745 321.357 33.6964 321.841 46.1939C322.003 48.6443 321.68 51.0948 320.712 53.0552C319.098 55.7507 316.355 55.7507 313.934 55.0157C299.573 51.0948 287.148 38.5973 274.4 28.0603C253.906 11.1518 231.477 -1.5908 208.24 -3.0611C181.455 -4.77645 152.892 7.72105 129.011 -10.6577C102.386 -31.2419 92.0582 -83.1923 66.7241 -107.207C56.5581 -116.764 44.6172 -121.42 33.6444 -128.281C-13.4739 -157.197 -45.5853 -234.387 -43.0036 -311.334" stroke="#E03F3F" stroke-opacity="0.3" stroke-width="1.08333" stroke-miterlimit="10"/>
<path d="M257.134 818.1C268.913 796.781 277.304 760.758 280.209 733.557C282.952 707.828 280.047 679.401 268.268 660.288C257.94 643.379 242.772 636.272 228.734 628.186C208.24 616.179 187.909 600.006 174.193 573.785C165.317 556.632 159.67 534.578 159.993 512.523C160.315 493.165 176.29 474.54 167.254 455.427C163.381 447.34 157.087 442.93 150.633 440.723C144.34 438.273 137.724 437.782 131.431 435.087C90.9286 418.913 111.584 358.387 91.8967 320.404C84.9581 306.926 72.8557 303.496 61.7216 301.29C40.2602 297.37 18.6375 295.409 -2.98535 295.899" stroke="#E03F3F" stroke-opacity="0.3" stroke-width="1.08333" stroke-miterlimit="10"/>
<path d="M914.371 478.216C910.982 450.034 901.301 424.794 892.909 399.064C871.932 335.106 859.023 259.631 874.676 192.242C875.644 188.323 876.612 184.156 876.289 179.99C875.805 175.825 873.384 171.658 870.641 172.393C869.189 172.884 868.06 174.354 867.091 175.825C858.7 189.303 856.279 208.907 856.602 227.284C856.925 245.664 859.507 264.042 859.668 282.421C859.83 317.463 850.793 352.751 856.279 386.813C861.927 420.874 881.292 446.358 888.068 479.931C890.65 492.674 891.78 551.485 903.237 551.73C918.243 551.976 915.823 490.467 914.371 478.216Z" stroke="#E03F3F" stroke-opacity="0.3" stroke-width="1.08333" stroke-miterlimit="10"/>
<path d="M1363.28 350.79C1354.08 350.544 1345.22 357.407 1338.43 366.963C1331.66 376.52 1326.81 388.773 1322.3 401.025C1319.56 408.622 1316.81 416.709 1312.62 422.835C1308.42 428.961 1302.62 433.126 1296.97 431.167C1291.8 429.452 1288.09 423.324 1284.06 418.179C1280.03 413.033 1274.86 408.622 1269.86 411.072C1267.92 412.053 1266.15 414.257 1263.88 414.503C1258.88 414.994 1256.3 404.212 1258.73 397.595C1261.14 390.978 1266.3 388.038 1271.15 385.343C1290.83 374.804 1310.52 364.513 1330.21 353.977C1336.18 350.79 1342.15 347.605 1347.31 342.458C1360.54 328.736 1366.19 303.74 1370.06 279.971" stroke="#E03F3F" stroke-opacity="0.3" stroke-width="1.08333" stroke-miterlimit="10"/>
<path d="M1308.42 389.754C1301.65 404.455 1290.35 407.397 1282.28 393.429C1290.83 382.891 1316.98 380.687 1321.66 368.189C1318.42 376.52 1312.13 381.667 1308.42 389.754Z" stroke="#E03F3F" stroke-opacity="0.3" stroke-width="1.08333" stroke-miterlimit="10"/>
<path d="M1187.55 38.1057C1179.97 35.4102 1172.07 38.5959 1164.16 39.0859C1140.6 40.5563 1119.3 17.5216 1103.81 -9.43383C1088.32 -36.3892 1076.22 -68.0005 1059.11 -92.5055C1051.53 -103.288 1041.85 -113.335 1031.52 -111.619C1031.84 -95.6912 1039.43 -81.9684 1047.98 -72.4114C1056.53 -63.0996 1066.37 -56.7284 1074.76 -46.6812C1086.87 -32.2233 1094.77 -11.3942 1105.42 5.75927C1120.1 29.5291 1140.12 45.7024 1161.25 50.8483C1169 52.8087 1176.75 53.2988 1184.49 55.9944C1189.34 57.7097 1194.02 60.4053 1198.53 63.1008C1202.24 52.5637 1194.17 40.8013 1187.55 38.1057Z" stroke="#E03F3F" stroke-opacity="0.3" stroke-width="1.08333" stroke-miterlimit="10"/>
<path d="M1077.03 263.063C1073.8 270.415 1070.25 279.725 1064.44 279.971C1058.31 280.216 1054.43 269.189 1055.24 259.878C1055.4 257.182 1055.89 254.731 1055.72 252.035C1055.24 247.135 1052.5 243.705 1050.56 239.783C1048.46 235.862 1047.17 229.981 1049.27 226.306C1050.08 224.836 1051.37 224.099 1052.66 223.61C1060.4 219.934 1068.96 219.934 1076.7 223.364C1079.61 224.59 1082.51 226.551 1085.42 227.04C1093.65 228.756 1100.75 221.895 1108.33 219.689C1113.65 218.219 1125.12 219.445 1116.72 229.981C1112.85 234.882 1100.75 234.392 1095.42 238.557C1088.16 243.949 1081.7 252.526 1077.03 263.063Z" stroke="#E03F3F" stroke-opacity="0.3" stroke-width="1.08333" stroke-miterlimit="10"/>
</g>
<defs>
<filter id="filter0_b_16_385" x="-40" y="-40" width="1420" height="527" filterUnits="userSpaceOnUse" color-interpolation-filters="sRGB">
<feFlood flood-opacity="0" result="BackgroundImageFix"/>
<feGaussianBlur in="BackgroundImageFix" stdDeviation="20"/>
<feComposite in2="SourceAlpha" operator="in" result="effect1_backgroundBlur_16_385"/>
<feBlend mode="normal" in="SourceGraphic" in2="effect1_backgroundBlur_16_385" result="shape"/>
</filter>
<clipPath id="clip0_16_385">
<rect width="1339" height="447" fill="white"/>
</clipPath>
</defs>
</svg>
